<?xml version="1.0" encoding="UTF-8"?>
<!DOCTYPE svg PUBLIC "-//W3C//DTD SVG 1.1//EN" "http://www.w3.org/Graphics/SVG/1.1/DTD/svg11.dtd">
<svg xmlns="http://www.w3.org/2000/svg" version="1.1" width="2877px" height="1573px" style="shape-rendering:geometricPrecision; text-rendering:geometricPrecision; image-rendering:optimizeQuality; fill-rule:evenodd; clip-rule:evenodd" xmlns:xlink="http://www.w3.org/1999/xlink">
<g><path style="opacity:1" fill="#53aea9" d="M -0.5,-0.5 C 958.5,-0.5 1917.5,-0.5 2876.5,-0.5C 2876.5,71.8333 2876.5,144.167 2876.5,216.5C 2059.83,216.5 1243.17,216.5 426.5,216.5C 284.167,216.5 141.833,216.5 -0.5,216.5C -0.5,144.167 -0.5,71.8333 -0.5,-0.5 Z"/></g>
<g><path style="opacity:1" fill="#f5f7f7" d="M 1351.5,31.5 C 1351.5,32.5 1351.5,33.5 1351.5,34.5C 1337.17,34.5 1322.83,34.5 1308.5,34.5C 1308.5,49.1667 1308.5,63.8333 1308.5,78.5C 1307.5,78.5 1306.5,78.5 1305.5,78.5C 1305.5,62.8333 1305.5,47.1667 1305.5,31.5C 1320.83,31.5 1336.17,31.5 1351.5,31.5 Z"/></g>
<g><path style="opacity:1" fill="#f8f9f9" d="M 1567.5,31.5 C 1567.83,46.8478 1567.5,62.1811 1566.5,77.5C 1565.83,63.3391 1565.17,49.3391 1564.5,35.5C 1550.34,34.5041 1536.01,34.1707 1521.5,34.5C 1521.5,33.5 1521.5,32.5 1521.5,31.5C 1536.83,31.5 1552.17,31.5 1567.5,31.5 Z"/></g>
<g><path style="opacity:1" fill="#7ea8a5" d="M 1351.5,31.5 C 1352.25,32.531 1352.92,33.6976 1353.5,35C 1338.84,35.4999 1324.17,35.6666 1309.5,35.5C 1309.83,50.0097 1309.5,64.3431 1308.5,78.5C 1308.5,63.8333 1308.5,49.1667 1308.5,34.5C 1322.83,34.5 1337.17,34.5 1351.5,34.5C 1351.5,33.5 1351.5,32.5 1351.5,31.5 Z"/></g>
<g><path style="opacity:1" fill="#c2d3d2" d="M 1567.5,31.5 C 1568.5,46.9911 1568.83,62.6578 1568.5,78.5C 1567.17,78.5 1565.83,78.5 1564.5,78.5C 1564.5,64.1667 1564.5,49.8333 1564.5,35.5C 1565.17,49.3391 1565.83,63.3391 1566.5,77.5C 1567.5,62.1811 1567.83,46.8478 1567.5,31.5 Z"/></g>
<g><path style="opacity:1" fill="#84dfde" d="M 1515.5,78.5 C 1508.83,78.5 1502.17,78.5 1495.5,78.5C 1495.43,81.4282 1494.77,84.0948 1493.5,86.5C 1492.3,77.1246 1496.3,73.7913 1505.5,76.5C 1509.24,76.5136 1512.57,77.1803 1515.5,78.5 Z"/></g>
<g><path style="opacity:1" fill="#aff7f7" d="M 1356.5,78.5 C 1349.83,78.3337 1343.16,78.5004 1336.5,79C 1335.22,80.4087 1334.22,81.9087 1333.5,83.5C 1333.18,81.2776 1333.84,79.4443 1335.5,78C 1342.68,77.1787 1349.68,77.3454 1356.5,78.5 Z"/></g>
<g><path style="opacity:1" fill="#b0f8f9" d="M 1545.5,78.5 C 1538.83,78.3337 1532.16,78.5004 1525.5,79C 1524.96,79.7172 1524.29,80.2172 1523.5,80.5C 1523.41,79.5041 1523.75,78.6708 1524.5,78C 1531.68,77.1787 1538.68,77.3454 1545.5,78.5 Z"/></g>
<g><path style="opacity:1" fill="#f9fbfd" d="M 1356.5,78.5 C 1356.5,78.8333 1356.5,79.1667 1356.5,79.5C 1355.85,81.4352 1355.52,83.4352 1355.5,85.5C 1351.17,85.5 1346.83,85.5 1342.5,85.5C 1342.06,89.1545 1341.72,92.8212 1341.5,96.5C 1339.08,104.953 1337.08,113.62 1335.5,122.5C 1339.77,122.869 1343.77,123.869 1347.5,125.5C 1346.89,126.391 1346.56,127.391 1346.5,128.5C 1346.5,129.5 1346.5,130.5 1346.5,131.5C 1339.5,131.5 1332.5,131.5 1325.5,131.5C 1324.98,130.423 1324.65,129.256 1324.5,128C 1325.96,122.945 1326.79,117.778 1327,112.5C 1328.71,102.649 1330.88,92.982 1333.5,83.5C 1334.22,81.9087 1335.22,80.4087 1336.5,79C 1343.16,78.5004 1349.83,78.3337 1356.5,78.5 Z"/></g>
<g><path style="opacity:1" fill="#f9fbfe" d="M 1386.5,80.5 C 1385.25,89.0936 1383.25,97.4269 1380.5,105.5C 1380.5,106.167 1380.5,106.833 1380.5,107.5C 1379.33,115.188 1377.83,122.854 1376,130.5C 1373.28,131.444 1370.45,131.777 1367.5,131.5C 1368.6,125.209 1369.6,118.876 1370.5,112.5C 1370.49,110.955 1370.16,109.622 1369.5,108.5C 1368.5,108.414 1367.67,108.748 1367,109.5C 1365.34,116.429 1364.01,123.429 1363,130.5C 1359.94,131.451 1356.78,131.784 1353.5,131.5C 1353.63,122.097 1355.46,113.097 1359,104.5C 1359.87,95.2778 1361.37,86.2778 1363.5,77.5C 1370.84,77.3337 1378.17,77.5003 1385.5,78C 1386.25,78.6708 1386.59,79.5041 1386.5,80.5 Z"/></g>
<g><path style="opacity:1" fill="#fafcfe" d="M 1417.5,80.5 C 1414.32,96.9161 1410.82,113.249 1407,129.5C 1406.5,130 1406,130.5 1405.5,131C 1398.84,131.5 1392.17,131.666 1385.5,131.5C 1384.42,128.257 1384.25,124.924 1385,121.5C 1386.3,118.994 1387.3,116.327 1388,113.5C 1389.94,102.368 1392.27,91.3682 1395,80.5C 1395.83,79.6667 1396.67,78.8333 1397.5,78C 1403.83,77.3333 1410.17,77.3333 1416.5,78C 1417.25,78.6708 1417.59,79.5041 1417.5,80.5 Z"/></g>
<g><path style="opacity:1" fill="#fcfcfe" d="M 1486.5,78.5 C 1486.83,79.1667 1487.17,79.8333 1487.5,80.5C 1486.61,83.0545 1486.28,85.7212 1486.5,88.5C 1484.78,92.557 1483.61,96.8903 1483,101.5C 1480.94,102.597 1480.44,103.93 1481.5,105.5C 1481.5,106.167 1481.5,106.833 1481.5,107.5C 1479.62,115.457 1477.95,123.457 1476.5,131.5C 1473.5,131.5 1470.5,131.5 1467.5,131.5C 1467.5,130.5 1467.5,129.5 1467.5,128.5C 1468.94,122.659 1470.27,116.659 1471.5,110.5C 1471.46,109.584 1471.12,108.917 1470.5,108.5C 1469.5,108.5 1468.5,108.5 1467.5,108.5C 1466.65,113.47 1465.98,118.47 1465.5,123.5C 1464.59,125.933 1463.59,128.433 1462.5,131C 1459.85,131.497 1457.19,131.664 1454.5,131.5C 1455.74,122.82 1457.07,114.153 1458.5,105.5C 1459.22,105.082 1459.72,104.416 1460,103.5C 1461.41,95.1254 1462.91,86.7921 1464.5,78.5C 1471.83,78.5 1479.17,78.5 1486.5,78.5 Z"/></g>
<g><path style="opacity:1" fill="#f9fbfe" d="M 1515.5,78.5 C 1516.17,78.5 1516.5,78.8333 1516.5,79.5C 1515.54,81.2646 1515.21,83.2646 1515.5,85.5C 1511.5,85.5 1507.5,85.5 1503.5,85.5C 1502.83,89.5 1502.17,93.5 1501.5,97.5C 1504.08,97.9805 1506.41,98.9805 1508.5,100.5C 1507.63,102.717 1507.3,105.05 1507.5,107.5C 1504.55,107.223 1501.72,107.556 1499,108.5C 1497.53,113.063 1496.69,117.73 1496.5,122.5C 1500.12,122.881 1503.45,123.881 1506.5,125.5C 1506.17,127.5 1505.83,129.5 1505.5,131.5C 1498.83,131.5 1492.17,131.5 1485.5,131.5C 1484.9,131.265 1484.57,130.765 1484.5,130C 1485.92,119.972 1487.92,110.138 1490.5,100.5C 1492.96,96.2622 1493.96,91.5955 1493.5,86.5C 1494.77,84.0948 1495.43,81.4282 1495.5,78.5C 1502.17,78.5 1508.83,78.5 1515.5,78.5 Z"/></g>
<g><path style="opacity:1" fill="#fafbfe" d="M 1545.5,78.5 C 1545.5,78.8333 1545.5,79.1667 1545.5,79.5C 1544.85,81.4352 1544.52,83.4352 1544.5,85.5C 1540.49,85.3345 1536.49,85.5012 1532.5,86C 1531.56,88.3806 1531.23,90.8806 1531.5,93.5C 1528.73,102.921 1526.4,112.588 1524.5,122.5C 1528.77,122.869 1532.77,123.869 1536.5,125.5C 1535.85,127.435 1535.52,129.435 1535.5,131.5C 1528.5,131.5 1521.5,131.5 1514.5,131.5C 1513.98,130.423 1513.65,129.256 1513.5,128C 1514.96,122.945 1515.79,117.778 1516,112.5C 1519.58,102.086 1522.08,91.4193 1523.5,80.5C 1524.29,80.2172 1524.96,79.7172 1525.5,79C 1532.16,78.5004 1538.83,78.3337 1545.5,78.5 Z"/></g>
<g><path style="opacity:1" fill="#c782db" d="M 1487.5,80.5 C 1488.49,83.2441 1488.16,85.9107 1486.5,88.5C 1486.28,85.7212 1486.61,83.0545 1487.5,80.5 Z"/></g>
<g><path style="opacity:1" fill="#cb74db" d="M 1356.5,79.5 C 1357.46,81.2646 1357.79,83.2646 1357.5,85.5C 1353.46,87.1978 1349.12,88.0311 1344.5,88C 1343.56,90.9494 1342.56,93.7827 1341.5,96.5C 1341.72,92.8212 1342.06,89.1545 1342.5,85.5C 1346.83,85.5 1351.17,85.5 1355.5,85.5C 1355.52,83.4352 1355.85,81.4352 1356.5,79.5 Z"/></g>
<g><path style="opacity:1" fill="#c975da" d="M 1545.5,79.5 C 1546.8,81.6934 1546.8,84.0268 1545.5,86.5C 1541.51,87.1066 1537.51,87.7733 1533.5,88.5C 1532.97,90.3361 1532.31,92.0028 1531.5,93.5C 1531.23,90.8806 1531.56,88.3806 1532.5,86C 1536.49,85.5012 1540.49,85.3345 1544.5,85.5C 1544.52,83.4352 1544.85,81.4352 1545.5,79.5 Z"/></g>
<g><path style="opacity:1" fill="#a85ab6" d="M 1374.5,87.5 C 1373.08,89.5145 1372.41,91.8478 1372.5,94.5C 1373.08,97.285 1372.08,98.9517 1369.5,99.5C 1370.98,94.9673 1371.65,90.3007 1371.5,85.5C 1373.18,85.2852 1374.18,85.9519 1374.5,87.5 Z"/></g>
<g><path style="opacity:1" fill="#c477d9" d="M 1417.5,80.5 C 1418.14,81.0968 1418.47,81.9302 1418.5,83C 1415.39,99.2635 1411.89,115.43 1408,131.5C 1407.25,132.126 1406.42,132.626 1405.5,133C 1399.17,133.667 1392.83,133.667 1386.5,133C 1385.94,132.617 1385.61,132.117 1385.5,131.5C 1392.17,131.666 1398.84,131.5 1405.5,131C 1406,130.5 1406.5,130 1407,129.5C 1410.82,113.249 1414.32,96.9161 1417.5,80.5 Z"/></g>
<g><path style="opacity:1" fill="#5a9ea4" d="M 1357.5,85.5 C 1357.43,87.4109 1356.43,88.5776 1354.5,89C 1351.52,89.498 1348.52,89.6646 1345.5,89.5C 1344.14,93.999 1343.14,98.6657 1342.5,103.5C 1342.25,104.713 1341.59,105.38 1340.5,105.5C 1340.96,102.518 1341.3,99.5176 1341.5,96.5C 1342.56,93.7827 1343.56,90.9494 1344.5,88C 1349.12,88.0311 1353.46,87.1978 1357.5,85.5 Z"/></g>
<g><path style="opacity:1" fill="#c574d7" d="M 1516.5,79.5 C 1517.29,81.9418 1516.95,84.4418 1515.5,87C 1511.85,87.4986 1508.18,87.6653 1504.5,87.5C 1504.68,91.2856 1503.68,94.619 1501.5,97.5C 1502.17,93.5 1502.83,89.5 1503.5,85.5C 1507.5,85.5 1511.5,85.5 1515.5,85.5C 1515.21,83.2646 1515.54,81.2646 1516.5,79.5 Z"/></g>
<g><path style="opacity:1" fill="#7ed1d6" d="M 1475.5,85.5 C 1476.12,85.9169 1476.46,86.5836 1476.5,87.5C 1475.62,91.8817 1474.62,96.2151 1473.5,100.5C 1472.21,100.737 1471.21,100.404 1470.5,99.5C 1472.26,98.4479 1472.92,96.7812 1472.5,94.5C 1473.92,92.4855 1474.59,90.1522 1474.5,87.5C 1475.34,87.1583 1475.67,86.4916 1475.5,85.5 Z"/></g>
<g><path style="opacity:1" fill="#ce7cde" d="M 1386.5,80.5 C 1387.14,81.0968 1387.47,81.9302 1387.5,83C 1386.57,88.8812 1385.4,94.7146 1384,100.5C 1383.78,102.881 1382.61,104.547 1380.5,105.5C 1383.25,97.4269 1385.25,89.0936 1386.5,80.5 Z"/></g>
<g><path style="opacity:1" fill="#c673d3" d="M 1475.5,85.5 C 1475.67,86.4916 1475.34,87.1583 1474.5,87.5C 1473.08,89.5145 1472.41,91.8478 1472.5,94.5C 1472.92,96.7812 1472.26,98.4479 1470.5,99.5C 1470.78,94.7732 1471.45,90.1065 1472.5,85.5C 1473.5,85.5 1474.5,85.5 1475.5,85.5 Z"/></g>
<g><path style="opacity:1" fill="#425d72" d="M 1374.5,87.5 C 1374.5,88.8333 1374.5,90.1667 1374.5,91.5C 1373.83,92.5 1373.17,93.5 1372.5,94.5C 1372.41,91.8478 1373.08,89.5145 1374.5,87.5 Z"/></g>
<g><path style="opacity:1" fill="#92e7e7" d="M 1486.5,78.5 C 1479.17,78.5 1471.83,78.5 1464.5,78.5C 1462.91,86.7921 1461.41,95.1254 1460,103.5C 1459.72,104.416 1459.22,105.082 1458.5,105.5C 1459.67,95.7941 1461.67,86.2941 1464.5,77C 1471.5,76.3333 1478.5,76.3333 1485.5,77C 1486.06,77.3826 1486.39,77.8826 1486.5,78.5 Z"/></g>
<g><path style="opacity:1" fill="#4f3766" d="M 1474.5,87.5 C 1474.59,90.1522 1473.92,92.4855 1472.5,94.5C 1472.41,91.8478 1473.08,89.5145 1474.5,87.5 Z"/></g>
<g><path style="opacity:1" fill="#adeff0" d="M 1493.5,86.5 C 1493.96,91.5955 1492.96,96.2622 1490.5,100.5C 1491.13,95.6398 1492.13,90.9731 1493.5,86.5 Z"/></g>
<g><path style="opacity:1" fill="#80c7cd" d="M 1405.5,85.5 C 1405.89,94.259 1404.39,102.926 1401,111.5C 1400.5,115.51 1400,119.51 1399.5,123.5C 1397.9,123.768 1396.57,123.434 1395.5,122.5C 1397.72,119.017 1399.05,115.017 1399.5,110.5C 1401.28,107.495 1402.28,104.162 1402.5,100.5C 1402.5,99.1667 1402.5,97.8333 1402.5,96.5C 1403.92,94.4855 1404.59,92.1522 1404.5,89.5C 1404.83,88.1667 1405.17,86.8333 1405.5,85.5 Z"/></g>
<g><path style="opacity:1" fill="#4c3e67" d="M 1404.5,89.5 C 1404.59,92.1522 1403.92,94.4855 1402.5,96.5C 1402.41,93.8478 1403.08,91.5145 1404.5,89.5 Z"/></g>
<g><path style="opacity:1" fill="#88d9dd" d="M 1374.5,91.5 C 1374.45,94.5682 1373.95,97.5682 1373,100.5C 1371.24,101.985 1370.08,101.652 1369.5,99.5C 1372.08,98.9517 1373.08,97.285 1372.5,94.5C 1373.17,93.5 1373.83,92.5 1374.5,91.5 Z"/></g>
<g><path style="opacity:1" fill="#c873db" d="M 1486.5,88.5 C 1485.99,93.5431 1485.16,98.5431 1484,103.5C 1483.29,104.381 1482.46,105.047 1481.5,105.5C 1480.44,103.93 1480.94,102.597 1483,101.5C 1483.61,96.8903 1484.78,92.557 1486.5,88.5 Z"/></g>
<g><path style="opacity:1" fill="#b85cc2" d="M 1405.5,85.5 C 1405.17,86.8333 1404.83,88.1667 1404.5,89.5C 1403.08,91.5145 1402.41,93.8478 1402.5,96.5C 1402.5,97.8333 1402.5,99.1667 1402.5,100.5C 1401.5,102.5 1400.5,104.5 1399.5,106.5C 1399.85,99.6891 1401.02,93.0224 1403,86.5C 1403.67,85.7476 1404.5,85.4142 1405.5,85.5 Z"/></g>
<g><path style="opacity:1" fill="#c97fdc" d="M 1341.5,96.5 C 1341.3,99.5176 1340.96,102.518 1340.5,105.5C 1339.24,110.237 1338.24,115.07 1337.5,120C 1337.32,121.376 1336.65,122.209 1335.5,122.5C 1337.08,113.62 1339.08,104.953 1341.5,96.5 Z"/></g>
<g><path style="opacity:1" fill="#50587a" d="M 1402.5,100.5 C 1402.28,104.162 1401.28,107.495 1399.5,110.5C 1399.5,109.167 1399.5,107.833 1399.5,106.5C 1400.5,104.5 1401.5,102.5 1402.5,100.5 Z"/></g>
<g><path style="opacity:1" fill="#ca7edd" d="M 1531.5,93.5 C 1530.03,102.357 1528.36,111.191 1526.5,120C 1526.32,121.376 1525.65,122.209 1524.5,122.5C 1526.4,112.588 1528.73,102.921 1531.5,93.5 Z"/></g>
<g><path style="opacity:1" fill="#c675d9" d="M 1508.5,100.5 C 1509.63,102.628 1509.8,104.961 1509,107.5C 1506.23,109.047 1503.23,110.047 1500,110.5C 1499.3,114.756 1498.13,118.756 1496.5,122.5C 1496.69,117.73 1497.53,113.063 1499,108.5C 1501.72,107.556 1504.55,107.223 1507.5,107.5C 1507.3,105.05 1507.63,102.717 1508.5,100.5 Z"/></g>
<g><path style="opacity:1" fill="#be66c8" d="M 1399.5,106.5 C 1399.5,107.833 1399.5,109.167 1399.5,110.5C 1399.05,115.017 1397.72,119.017 1395.5,122.5C 1396.23,116.906 1397.57,111.573 1399.5,106.5 Z"/></g>
<g><path style="opacity:1" fill="#ad5ab8" d="M 1470.5,108.5 C 1469.09,112.397 1468.09,116.397 1467.5,120.5C 1466.83,121.5 1466.17,122.5 1465.5,123.5C 1465.98,118.47 1466.65,113.47 1467.5,108.5C 1468.5,108.5 1469.5,108.5 1470.5,108.5 Z"/></g>
<g><path style="opacity:1" fill="#81c9ce" d="M 1470.5,108.5 C 1471.12,108.917 1471.46,109.584 1471.5,110.5C 1470.27,116.659 1468.94,122.659 1467.5,128.5C 1467.5,127.167 1467.5,125.833 1467.5,124.5C 1467.5,123.167 1467.5,121.833 1467.5,120.5C 1468.09,116.397 1469.09,112.397 1470.5,108.5 Z"/></g>
<g><path style="opacity:1" fill="#405c6e" d="M 1369.5,110.5 C 1369.59,113.152 1368.92,115.485 1367.5,117.5C 1367.41,114.848 1368.08,112.515 1369.5,110.5 Z"/></g>
<g><path style="opacity:1" fill="#c67ada" d="M 1481.5,107.5 C 1482.12,107.917 1482.46,108.584 1482.5,109.5C 1480.65,117.484 1478.98,125.484 1477.5,133.5C 1474.48,133.665 1471.48,133.498 1468.5,133C 1467.94,132.617 1467.61,132.117 1467.5,131.5C 1470.5,131.5 1473.5,131.5 1476.5,131.5C 1477.95,123.457 1479.62,115.457 1481.5,107.5 Z"/></g>
<g><path style="opacity:1" fill="#bc63c9" d="M 1369.5,108.5 C 1369.5,109.167 1369.5,109.833 1369.5,110.5C 1368.08,112.515 1367.41,114.848 1367.5,117.5C 1367.5,117.833 1367.5,118.167 1367.5,118.5C 1365.93,120.102 1365.26,122.102 1365.5,124.5C 1366.22,130.106 1363.89,133.106 1358.5,133.5C 1356.36,133.444 1354.69,132.777 1353.5,131.5C 1356.78,131.784 1359.94,131.451 1363,130.5C 1364.01,123.429 1365.34,116.429 1367,109.5C 1367.67,108.748 1368.5,108.414 1369.5,108.5 Z"/></g>
<g><path style="opacity:1" fill="#c479d8" d="M 1380.5,107.5 C 1381.63,109.966 1381.8,112.633 1381,115.5C 1379.77,121.189 1378.44,126.856 1377,132.5C 1375.43,133.122 1373.76,133.456 1372,133.5C 1370.01,133.431 1368.51,132.765 1367.5,131.5C 1370.45,131.777 1373.28,131.444 1376,130.5C 1377.83,122.854 1379.33,115.188 1380.5,107.5 Z"/></g>
<g><path style="opacity:1" fill="#331412" d="M 1432.5,89.5 C 1441.74,88.7433 1448.58,92.41 1453,100.5C 1454.78,117.386 1447.28,124.886 1430.5,123C 1421.53,117.667 1418.36,109.834 1421,99.5C 1423.79,94.8686 1427.63,91.5353 1432.5,89.5 Z"/></g>
<g><path style="opacity:1" fill="#620f0a" d="M 1427.5,97.5 C 1421.72,104.84 1422.38,111.674 1429.5,118C 1435.85,121.665 1441.68,120.832 1447,115.5C 1450.9,110.429 1451.4,105.095 1448.5,99.5C 1453.59,107.679 1451.92,114.512 1443.5,120C 1434.63,123.564 1427.8,121.397 1423,113.5C 1422.33,109.167 1422.33,104.833 1423,100.5C 1424.13,98.8588 1425.63,97.8588 1427.5,97.5 Z"/></g>
<g><path style="opacity:1" fill="#e63022" d="M 1448.5,99.5 C 1451.4,105.095 1450.9,110.429 1447,115.5C 1441.68,120.832 1435.85,121.665 1429.5,118C 1422.38,111.674 1421.72,104.84 1427.5,97.5C 1428.17,96.1667 1429.17,95.1667 1430.5,94.5C 1437.64,92.14 1443.64,93.8067 1448.5,99.5 Z"/></g>
<g><path style="opacity:1" fill="#6b120c" d="M 1448.5,99.5 C 1443.64,93.8067 1437.64,92.14 1430.5,94.5C 1432.22,93.1999 1434.39,92.5332 1437,92.5C 1442.77,91.7857 1446.6,94.119 1448.5,99.5 Z"/></g>
<g><path style="opacity:1" fill="#4a365f" d="M 1367.5,118.5 C 1367.48,120.565 1367.15,122.565 1366.5,124.5C 1366.17,124.5 1365.83,124.5 1365.5,124.5C 1365.26,122.102 1365.93,120.102 1367.5,118.5 Z"/></g>
<g><path style="opacity:1" fill="#95e7e8" d="M 1458.5,105.5 C 1457.07,114.153 1455.74,122.82 1454.5,131.5C 1453.37,129.372 1453.2,127.039 1454,124.5C 1454.91,117.901 1456.41,111.567 1458.5,105.5 Z"/></g>
<g><path style="opacity:1" fill="#533e6d" d="M 1467.5,120.5 C 1467.5,121.833 1467.5,123.167 1467.5,124.5C 1466.83,125.5 1466.17,126.5 1465.5,127.5C 1465.5,126.167 1465.5,124.833 1465.5,123.5C 1466.17,122.5 1466.83,121.5 1467.5,120.5 Z"/></g>
<g><path style="opacity:1" fill="#bf90d6" d="M 1347.5,125.5 C 1348.83,127.5 1348.83,129.5 1347.5,131.5C 1347.74,130.209 1347.4,129.209 1346.5,128.5C 1346.56,127.391 1346.89,126.391 1347.5,125.5 Z"/></g>
<g><path style="opacity:1" fill="#abe3e5" d="M 1369.5,108.5 C 1370.16,109.622 1370.49,110.955 1370.5,112.5C 1369.6,118.876 1368.6,125.209 1367.5,131.5C 1366.53,129.393 1366.2,127.059 1366.5,124.5C 1367.15,122.565 1367.48,120.565 1367.5,118.5C 1367.5,118.167 1367.5,117.833 1367.5,117.5C 1368.92,115.485 1369.59,113.152 1369.5,110.5C 1369.5,109.833 1369.5,109.167 1369.5,108.5 Z"/></g>
<g><path style="opacity:1" fill="#c56ada" d="M 1346.5,128.5 C 1347.4,129.209 1347.74,130.209 1347.5,131.5C 1347.39,132.117 1347.06,132.617 1346.5,133C 1339.83,133.667 1333.17,133.667 1326.5,133C 1325.94,132.617 1325.61,132.117 1325.5,131.5C 1332.5,131.5 1339.5,131.5 1346.5,131.5C 1346.5,130.5 1346.5,129.5 1346.5,128.5 Z"/></g>
<g><path style="opacity:1" fill="#c669d8" d="M 1465.5,123.5 C 1465.5,124.833 1465.5,126.167 1465.5,127.5C 1465.7,132.107 1463.54,134.107 1459,133.5C 1457.01,133.431 1455.51,132.765 1454.5,131.5C 1457.19,131.664 1459.85,131.497 1462.5,131C 1463.59,128.433 1464.59,125.933 1465.5,123.5 Z"/></g>
<g><path style="opacity:1" fill="#c36bd9" d="M 1506.5,125.5 C 1507.83,128.061 1507.5,130.561 1505.5,133C 1502.17,133.167 1498.83,133.333 1495.5,133.5C 1491.76,133.486 1488.43,132.82 1485.5,131.5C 1492.17,131.5 1498.83,131.5 1505.5,131.5C 1505.83,129.5 1506.17,127.5 1506.5,125.5 Z"/></g>
<g><path style="opacity:1" fill="#c46cd9" d="M 1536.5,125.5 C 1537.83,128.061 1537.5,130.561 1535.5,133C 1528.83,133.667 1522.17,133.667 1515.5,133C 1514.94,132.617 1514.61,132.117 1514.5,131.5C 1521.5,131.5 1528.5,131.5 1535.5,131.5C 1535.52,129.435 1535.85,127.435 1536.5,125.5 Z"/></g>
<g><path style="opacity:1" fill="#e6eeed" d="M 1305.5,137.5 C 1306.5,137.5 1307.5,137.5 1308.5,137.5C 1308.5,151.833 1308.5,166.167 1308.5,180.5C 1322.84,180.333 1337.17,180.5 1351.5,181C 1352.34,182.011 1352.67,183.178 1352.5,184.5C 1336.83,184.5 1321.17,184.5 1305.5,184.5C 1305.5,168.833 1305.5,153.167 1305.5,137.5 Z"/></g>
<g><path style="opacity:1" fill="#cad9d8" d="M 1564.5,180.5 C 1564.5,166.167 1564.5,151.833 1564.5,137.5C 1565.83,137.5 1567.17,137.5 1568.5,137.5C 1568.5,153.167 1568.5,168.833 1568.5,184.5C 1552.83,184.5 1537.17,184.5 1521.5,184.5C 1521.5,183.167 1521.5,181.833 1521.5,180.5C 1535.83,180.5 1550.17,180.5 1564.5,180.5 Z"/></g>
<g><path style="opacity:1" fill="#fbfbfb" d="M 1564.5,180.5 C 1565.17,166.661 1565.83,152.661 1566.5,138.5C 1567.5,153.485 1567.83,168.485 1567.5,183.5C 1552.49,183.833 1537.49,183.499 1522.5,182.5C 1536.66,181.833 1550.66,181.167 1564.5,180.5 Z"/></g>
<g><path style="opacity:1" fill="#184773" d="M -0.5,216.5 C 141.833,216.5 284.167,216.5 426.5,216.5C 426.5,668.5 426.5,1120.5 426.5,1572.5C 284.167,1572.5 141.833,1572.5 -0.5,1572.5C -0.5,1120.5 -0.5,668.5 -0.5,216.5 Z"/></g>
<g><path style="opacity:1" fill="#e1dfdd" d="M 426.5,216.5 C 1243.17,216.5 2059.83,216.5 2876.5,216.5C 2876.5,668.5 2876.5,1120.5 2876.5,1572.5C 2059.83,1572.5 1243.17,1572.5 426.5,1572.5C 426.5,1120.5 426.5,668.5 426.5,216.5 Z"/></g>
<g><path style="opacity:1" fill="#dedcda" d="M 484.5,224.5 C 717.834,224.333 951.167,224.5 1184.5,225C 1218.35,226.853 1236.19,244.686 1238,278.5C 1238.88,271.374 1240.38,264.374 1242.5,257.5C 1244.62,264.374 1246.12,271.374 1247,278.5C 1248.81,244.686 1266.65,226.853 1300.5,225C 1534.5,224.333 1768.5,224.333 2002.5,225C 2036.35,226.853 2054.19,244.686 2056,278.5C 2056.88,271.374 2058.38,264.374 2060.5,257.5C 2062.62,264.374 2064.12,271.374 2065,278.5C 2066.81,244.686 2084.65,226.853 2118.5,225C 2354.19,224.007 2589.86,224.34 2825.5,226C 2850.83,228.667 2866,242.5 2871,267.5C 2872.14,323.815 2872.64,380.149 2872.5,436.5C 2872.64,492.851 2872.14,549.185 2871,605.5C 2864.87,633.505 2847.37,647.672 2818.5,648C 2585.17,648.667 2351.83,648.667 2118.5,648C 2084.65,646.147 2066.81,628.314 2065,594.5C 2064.12,601.626 2062.62,608.626 2060.5,615.5C 2058.38,608.626 2056.88,601.626 2056,594.5C 2054.19,628.314 2036.35,646.147 2002.5,648C 1768.5,648.667 1534.5,648.667 1300.5,648C 1266.65,646.147 1248.81,628.314 1247,594.5C 1246.12,601.626 1244.62,608.626 1242.5,615.5C 1240.38,608.626 1238.88,601.626 1238,594.5C 1236.19,628.314 1218.35,646.147 1184.5,648C 948.809,648.993 713.142,648.66 477.5,647C 452.166,644.333 436.999,630.5 432,605.5C 430.357,496.517 430.023,387.517 431,278.5C 432.99,244.677 450.824,226.677 484.5,224.5 Z"/></g>
<g><path style="opacity:1" fill="#353a3f" d="M 1210.5,243.5 C 1210.5,248.5 1210.5,253.5 1210.5,258.5C 1210.67,371.834 1210.5,485.167 1210,598.5C 1209.39,600.066 1208.56,601.4 1207.5,602.5C 1203.4,604.28 1199.07,604.946 1194.5,604.5C 954.5,604.5 714.5,604.5 474.5,604.5C 470.4,604.763 466.4,604.43 462.5,603.5C 460.864,602.251 459.697,600.584 459,598.5C 458.5,485.167 458.333,371.834 458.5,258.5C 458.5,253.5 458.5,248.5 458.5,243.5C 459.312,240.725 460.979,238.558 463.5,237C 710.5,236.333 957.5,236.333 1204.5,237C 1207.75,238.08 1209.75,240.247 1210.5,243.5 Z"/></g>
<g><path style="opacity:1" fill="#353a3f" d="M 2028.5,243.5 C 2028.5,248.5 2028.5,253.5 2028.5,258.5C 2028.67,371.834 2028.5,485.167 2028,598.5C 2027.39,600.066 2026.56,601.4 2025.5,602.5C 2021.4,604.28 2017.07,604.946 2012.5,604.5C 1771.83,604.5 1531.17,604.5 1290.5,604.5C 1286.4,604.763 1282.4,604.43 1278.5,603.5C 1276.86,602.251 1275.7,600.584 1275,598.5C 1274.5,485.167 1274.33,371.834 1274.5,258.5C 1274.5,253.5 1274.5,248.5 1274.5,243.5C 1275.31,240.725 1276.98,238.558 1279.5,237C 1527.17,236.333 1774.83,236.333 2022.5,237C 2025.75,238.08 2027.75,240.247 2028.5,243.5 Z"/></g>
<g><path style="opacity:1" fill="#353a3f" d="M 2844.5,243.5 C 2844.5,248.5 2844.5,253.5 2844.5,258.5C 2844.67,371.834 2844.5,485.167 2844,598.5C 2843.39,600.066 2842.56,601.4 2841.5,602.5C 2837.4,604.28 2833.07,604.946 2828.5,604.5C 2588.5,604.5 2348.5,604.5 2108.5,604.5C 2104.4,604.763 2100.4,604.43 2096.5,603.5C 2094.86,602.251 2093.7,600.584 2093,598.5C 2092.5,485.167 2092.33,371.834 2092.5,258.5C 2092.5,253.5 2092.5,248.5 2092.5,243.5C 2093.31,240.725 2094.98,238.558 2097.5,237C 2344.5,236.333 2591.5,236.333 2838.5,237C 2841.75,238.08 2843.75,240.247 2844.5,243.5 Z"/></g>
<g><path style="opacity:1" fill="#fefefe" d="M 463.5,238.5 C 710.5,238.333 957.5,238.5 1204.5,239C 1205.93,239.465 1207.1,240.299 1208,241.5C 1208.67,360.5 1208.67,479.5 1208,598.5C 1207.5,600.333 1206.33,601.5 1204.5,602C 957.5,602.667 710.5,602.667 463.5,602C 462.299,601.097 461.465,599.931 461,598.5C 460.333,479.5 460.333,360.5 461,241.5C 462.045,240.627 462.878,239.627 463.5,238.5 Z"/></g>
<g><path style="opacity:1" fill="#fefefe" d="M 1279.5,238.5 C 1527.17,238.333 1774.83,238.5 2022.5,239C 2023.93,239.465 2025.1,240.299 2026,241.5C 2026.67,360.5 2026.67,479.5 2026,598.5C 2025.5,600.333 2024.33,601.5 2022.5,602C 1774.83,602.667 1527.17,602.667 1279.5,602C 1278.3,601.097 1277.47,599.931 1277,598.5C 1276.33,479.5 1276.33,360.5 1277,241.5C 1278.04,240.627 1278.88,239.627 1279.5,238.5 Z"/></g>
<g><path style="opacity:1" fill="#fefefe" d="M 2097.5,238.5 C 2344.5,238.333 2591.5,238.5 2838.5,239C 2839.93,239.465 2841.1,240.299 2842,241.5C 2842.67,360.5 2842.67,479.5 2842,598.5C 2841.5,600.333 2840.33,601.5 2838.5,602C 2591.5,602.667 2344.5,602.667 2097.5,602C 2096.3,601.097 2095.47,599.931 2095,598.5C 2094.33,479.5 2094.33,360.5 2095,241.5C 2096.04,240.627 2096.88,239.627 2097.5,238.5 Z"/></g>
<g><path style="opacity:1" fill="#dad8d6" d="M 458.5,243.5 C 458.5,248.5 458.5,253.5 458.5,258.5C 457.833,258.833 457.167,259.167 456.5,259.5C 453.871,262.078 452.037,265.745 451,270.5C 449.904,278.124 449.238,285.791 449,293.5C 448.333,388.833 448.333,484.167 449,579.5C 448.221,591.832 450.554,603.499 456,614.5C 461.026,621.606 467.859,626.106 476.5,628C 482.782,629.092 489.116,629.758 495.5,630C 721.5,630.667 947.5,630.667 1173.5,630C 1185.85,630.666 1197.19,627.666 1207.5,621C 1212.67,615.826 1216.17,609.659 1218,602.5C 1219.1,594.876 1219.76,587.209 1220,579.5C 1220.67,484.167 1220.67,388.833 1220,293.5C 1219.76,285.791 1219.1,278.124 1218,270.5C 1216.96,265.745 1215.13,262.078 1212.5,259.5C 1211.83,259.167 1211.17,258.833 1210.5,258.5C 1210.5,253.5 1210.5,248.5 1210.5,243.5C 1219.92,253.028 1225.09,264.695 1226,278.5C 1226.67,383.833 1226.67,489.167 1226,594.5C 1224.14,620.362 1210.3,634.195 1184.5,636C 951.167,636.667 717.833,636.667 484.5,636C 458.695,634.195 444.862,620.362 443,594.5C 442.333,489.167 442.333,383.833 443,278.5C 443.914,264.695 449.08,253.028 458.5,243.5 Z"/></g>
<g><path style="opacity:1" fill="#dad8d6" d="M 1274.5,243.5 C 1274.5,248.5 1274.5,253.5 1274.5,258.5C 1273.83,258.833 1273.17,259.167 1272.5,259.5C 1269.87,262.078 1268.04,265.745 1267,270.5C 1265.9,278.124 1265.24,285.791 1265,293.5C 1264.33,388.833 1264.33,484.167 1265,579.5C 1264.22,591.832 1266.55,603.499 1272,614.5C 1277.03,621.606 1283.86,626.106 1292.5,628C 1298.78,629.092 1305.12,629.758 1311.5,630C 1538.17,630.667 1764.83,630.667 1991.5,630C 2003.85,630.666 2015.19,627.666 2025.5,621C 2030.67,615.826 2034.17,609.659 2036,602.5C 2037.1,594.876 2037.76,587.209 2038,579.5C 2038.67,484.167 2038.67,388.833 2038,293.5C 2037.76,285.791 2037.1,278.124 2036,270.5C 2034.96,265.745 2033.13,262.078 2030.5,259.5C 2029.83,259.167 2029.17,258.833 2028.5,258.5C 2028.5,253.5 2028.5,248.5 2028.5,243.5C 2037.92,253.028 2043.09,264.695 2044,278.5C 2044.67,383.833 2044.67,489.167 2044,594.5C 2042.14,620.362 2028.3,634.195 2002.5,636C 1768.5,636.667 1534.5,636.667 1300.5,636C 1274.7,634.195 1260.86,620.362 1259,594.5C 1258.33,489.167 1258.33,383.833 1259,278.5C 1259.91,264.695 1265.08,253.028 1274.5,243.5 Z"/></g>
<g><path style="opacity:1" fill="#dad8d6" d="M 2092.5,243.5 C 2092.5,248.5 2092.5,253.5 2092.5,258.5C 2091.83,258.833 2091.17,259.167 2090.5,259.5C 2087.87,262.078 2086.04,265.745 2085,270.5C 2083.9,278.124 2083.24,285.791 2083,293.5C 2082.33,388.833 2082.33,484.167 2083,579.5C 2082.22,591.832 2084.55,603.499 2090,614.5C 2095.03,621.606 2101.86,626.106 2110.5,628C 2116.78,629.092 2123.12,629.758 2129.5,630C 2355.5,630.667 2581.5,630.667 2807.5,630C 2819.85,630.666 2831.19,627.666 2841.5,621C 2846.67,615.826 2850.17,609.659 2852,602.5C 2853.1,594.876 2853.76,587.209 2854,579.5C 2854.67,484.167 2854.67,388.833 2854,293.5C 2853.76,285.791 2853.1,278.124 2852,270.5C 2850.96,265.745 2849.13,262.078 2846.5,259.5C 2845.83,259.167 2845.17,258.833 2844.5,258.5C 2844.5,253.5 2844.5,248.5 2844.5,243.5C 2853.92,253.028 2859.09,264.695 2860,278.5C 2860.67,383.833 2860.67,489.167 2860,594.5C 2858.14,620.362 2844.3,634.195 2818.5,636C 2585.17,636.667 2351.83,636.667 2118.5,636C 2092.7,634.195 2078.86,620.362 2077,594.5C 2076.33,489.167 2076.33,383.833 2077,278.5C 2077.91,264.695 2083.08,253.028 2092.5,243.5 Z"/></g>
<g><path style="opacity:1" fill="#d6d4d2" d="M 456.5,259.5 C 455.888,270.509 455.055,281.509 454,292.5C 453.333,388.5 453.333,484.5 454,580.5C 452.171,612.004 467.004,626.837 498.5,625C 722.5,625.667 946.5,625.667 1170.5,625C 1202,626.837 1216.83,612.004 1215,580.5C 1215.67,484.5 1215.67,388.5 1215,292.5C 1213.95,281.509 1213.11,270.509 1212.5,259.5C 1215.13,262.078 1216.96,265.745 1218,270.5C 1219.1,278.124 1219.76,285.791 1220,293.5C 1220.67,388.833 1220.67,484.167 1220,579.5C 1219.76,587.209 1219.1,594.876 1218,602.5C 1216.17,609.659 1212.67,615.826 1207.5,621C 1197.19,627.666 1185.85,630.666 1173.5,630C 947.5,630.667 721.5,630.667 495.5,630C 489.116,629.758 482.782,629.092 476.5,628C 467.859,626.106 461.026,621.606 456,614.5C 450.554,603.499 448.221,591.832 449,579.5C 448.333,484.167 448.333,388.833 449,293.5C 449.238,285.791 449.904,278.124 451,270.5C 452.037,265.745 453.871,262.078 456.5,259.5 Z"/></g>
<g><path style="opacity:1" fill="#d6d4d2" d="M 1272.5,259.5 C 1271.89,270.509 1271.05,281.509 1270,292.5C 1269.33,388.5 1269.33,484.5 1270,580.5C 1268.17,612.004 1283,626.837 1314.5,625C 1539.17,625.667 1763.83,625.667 1988.5,625C 2020,626.837 2034.83,612.004 2033,580.5C 2033.67,484.5 2033.67,388.5 2033,292.5C 2031.95,281.509 2031.11,270.509 2030.5,259.5C 2033.13,262.078 2034.96,265.745 2036,270.5C 2037.1,278.124 2037.76,285.791 2038,293.5C 2038.67,388.833 2038.67,484.167 2038,579.5C 2037.76,587.209 2037.1,594.876 2036,602.5C 2034.17,609.659 2030.67,615.826 2025.5,621C 2015.19,627.666 2003.85,630.666 1991.5,630C 1764.83,630.667 1538.17,630.667 1311.5,630C 1305.12,629.758 1298.78,629.092 1292.5,628C 1283.86,626.106 1277.03,621.606 1272,614.5C 1266.55,603.499 1264.22,591.832 1265,579.5C 1264.33,484.167 1264.33,388.833 1265,293.5C 1265.24,285.791 1265.9,278.124 1267,270.5C 1268.04,265.745 1269.87,262.078 1272.5,259.5 Z"/></g>
<g><path style="opacity:1" fill="#d6d4d2" d="M 2090.5,259.5 C 2089.89,270.509 2089.05,281.509 2088,292.5C 2087.33,388.5 2087.33,484.5 2088,580.5C 2086.17,612.004 2101,626.837 2132.5,625C 2356.5,625.667 2580.5,625.667 2804.5,625C 2836,626.837 2850.83,612.004 2849,580.5C 2849.67,484.5 2849.67,388.5 2849,292.5C 2847.95,281.509 2847.11,270.509 2846.5,259.5C 2849.13,262.078 2850.96,265.745 2852,270.5C 2853.1,278.124 2853.76,285.791 2854,293.5C 2854.67,388.833 2854.67,484.167 2854,579.5C 2853.76,587.209 2853.1,594.876 2852,602.5C 2850.17,609.659 2846.67,615.826 2841.5,621C 2831.19,627.666 2819.85,630.666 2807.5,630C 2581.5,630.667 2355.5,630.667 2129.5,630C 2123.12,629.758 2116.78,629.092 2110.5,628C 2101.86,626.106 2095.03,621.606 2090,614.5C 2084.55,603.499 2082.22,591.832 2083,579.5C 2082.33,484.167 2082.33,388.833 2083,293.5C 2083.24,285.791 2083.9,278.124 2085,270.5C 2086.04,265.745 2087.87,262.078 2090.5,259.5 Z"/></g>
<g><path style="opacity:1" fill="#f5f7f9" d="M 191.5,328.5 C 203.99,326.823 209.157,332.156 207,344.5C 203.908,356.282 196.408,361.449 184.5,360C 183.941,359.275 183.608,358.442 183.5,357.5C 185.667,349.167 188.333,341 191.5,333C 190.278,331.437 190.278,329.937 191.5,328.5 Z"/></g>
<g><path style="opacity:1" fill="#f3f5f7" d="M 175.5,328.5 C 178.792,329.057 181.292,330.724 183,333.5C 184.764,343.811 181.597,352.311 173.5,359C 166.176,362.625 162.176,360.458 161.5,352.5C 162.101,341.943 166.768,333.943 175.5,328.5 Z"/></g>
<g><path style="opacity:1" fill="#f1f4f6" d="M 136.5,330.5 C 139.243,330.077 140.576,331.244 140.5,334C 138.55,340.411 137.383,346.911 137,353.5C 141,346.167 145,338.833 149,331.5C 150.333,330.167 151.667,330.167 153,331.5C 152.447,336.519 151.447,341.519 150,346.5C 149.333,349.167 149.333,351.833 150,354.5C 154.469,347.229 158.135,339.562 161,331.5C 162.333,330.167 163.667,330.167 165,331.5C 162.679,342.774 157.512,352.607 149.5,361C 148.216,361.684 147.049,361.517 146,360.5C 144.847,357.289 144.18,353.956 144,350.5C 142.204,353.927 140.037,357.094 137.5,360C 135.559,360.743 133.726,360.576 132,359.5C 132.01,349.615 133.51,339.949 136.5,330.5 Z"/></g>
<g><path style="opacity:1" fill="#204c77" d="M 175.5,333.5 C 178.286,333.956 179.619,335.623 179.5,338.5C 178.741,345.519 175.741,351.352 170.5,356C 168.075,356.986 166.409,356.319 165.5,354C 166.585,345.998 169.918,339.165 175.5,333.5 Z"/></g>
<g><path style="opacity:1" fill="#204c77" d="M 195.5,333.5 C 202.182,332.825 204.682,335.825 203,342.5C 201.678,350.321 197.178,354.988 189.5,356.5C 189.338,354.473 189.505,352.473 190,350.5C 191.944,344.835 193.778,339.168 195.5,333.5 Z"/></g>
<g><path style="opacity:1" fill="#f3f6f8" d="M 140.5,430.5 C 143.05,430.884 144.383,432.384 144.5,435C 142.251,443.748 140.417,452.581 139,461.5C 137.989,462.337 136.822,462.67 135.5,462.5C 135.396,455.626 136.23,448.959 138,442.5C 135.275,448.786 131.442,454.286 126.5,459C 124.299,459.825 122.466,459.325 121,457.5C 121.126,453.467 121.46,449.467 122,445.5C 119.06,451.586 115.56,457.253 111.5,462.5C 110.28,462.113 109.613,461.28 109.5,460C 114.112,450.609 119.112,441.442 124.5,432.5C 125.651,431.269 126.817,431.269 128,432.5C 128.167,434 128.333,435.5 128.5,437C 127.405,442.522 126.572,448.022 126,453.5C 130.844,445.805 135.677,438.139 140.5,430.5 Z"/></g>
<g><path style="opacity:1" fill="#f3f5f8" d="M 167.5,431.5 C 177.48,429.975 181.314,433.975 179,443.5C 177.167,445.333 175.333,447.167 173.5,449C 170.613,450.45 167.779,450.95 165,450.5C 163.341,453.43 163.008,456.43 164,459.5C 159.344,462.529 157.677,461.196 159,455.5C 161.002,448.162 163.002,440.829 165,433.5C 165.995,432.934 166.828,432.267 167.5,431.5 Z"/></g>
<g><path style="opacity:1" fill="#1f4b76" d="M 170.5,435.5 C 174.677,434.842 176.177,436.508 175,440.5C 173.359,444.323 170.526,446.323 166.5,446.5C 167.382,442.62 168.715,438.953 170.5,435.5 Z"/></g>
<g><path style="opacity:1" fill="#f2f4f7" d="M 148.5,444.5 C 148.18,447.898 148.513,451.232 149.5,454.5C 150.107,454.376 150.44,454.043 150.5,453.5C 151.539,450.218 152.872,447.052 154.5,444C 155.449,443.383 156.282,443.549 157,444.5C 155.593,453.157 152.093,460.991 146.5,468C 143.634,469.457 140.634,469.79 137.5,469C 136.663,467.989 136.33,466.822 136.5,465.5C 139.685,465.98 142.519,465.314 145,463.5C 145.707,461.919 146.54,460.419 147.5,459C 146.107,457.829 145.273,456.329 145,454.5C 144.333,450.833 144.333,447.167 145,443.5C 146.579,442.2 147.745,442.534 148.5,444.5 Z"/></g>
<g><path style="opacity:1" fill="#f0f3f6" d="M 195.5,456.5 C 195.582,458.252 194.749,459.252 193,459.5C 190.525,459.016 188.692,457.683 187.5,455.5C 185.37,457.898 182.703,459.232 179.5,459.5C 177.448,459.384 176.115,458.384 175.5,456.5C 177.261,450.299 180.928,445.632 186.5,442.5C 192.064,444.377 193.897,448.044 192,453.5C 192.72,455.056 193.887,456.056 195.5,456.5 Z"/></g>
<g><path style="opacity:1" fill="#f1f4f7" d="M 195.5,456.5 C 195.804,449.239 199.471,444.572 206.5,442.5C 212.387,445.349 212.887,449.016 208,453.5C 207.126,457.535 206.126,461.535 205,465.5C 202.79,468.29 199.956,469.123 196.5,468C 194.485,466.445 194.152,464.611 195.5,462.5C 197.122,464.439 198.956,464.772 201,463.5C 202.314,460.911 202.981,458.244 203,455.5C 200.67,457.547 198.17,457.88 195.5,456.5 Z"/></g>
<g><path style="opacity:1" fill="#edf0f4" d="M 217.5,442.5 C 221.525,441.578 223.859,443.078 224.5,447C 223.894,452.435 220.894,454.602 215.5,453.5C 215.238,454.978 215.571,456.311 216.5,457.5C 218.001,456.248 219.668,455.248 221.5,454.5C 222.5,454.833 223.167,455.5 223.5,456.5C 220.551,461.518 216.717,462.518 212,459.5C 210.414,452.683 212.247,447.017 217.5,442.5 Z"/></g>
<g><path style="opacity:1" fill="#3e6187" d="M 203.5,447.5 C 204.675,447.281 205.675,447.614 206.5,448.5C 205.004,451.527 202.671,453.027 199.5,453C 200.665,451.008 201.998,449.175 203.5,447.5 Z"/></g>
<g><path style="opacity:1" fill="#1b4975" d="M 219.5,446.5 C 220.688,448.496 220.021,449.329 217.5,449C 218.381,448.292 219.047,447.458 219.5,446.5 Z"/></g>
<g><path style="opacity:1" fill="#839cb4" d="M 148.5,444.5 C 149.167,447.5 149.833,450.5 150.5,453.5C 150.44,454.043 150.107,454.376 149.5,454.5C 148.513,451.232 148.18,447.898 148.5,444.5 Z"/></g>
<g><path style="opacity:1" fill="#28517b" d="M 185.5,447.5 C 186.376,447.369 187.043,447.702 187.5,448.5C 180.752,456.652 180.086,456.319 185.5,447.5 Z"/></g>
<g><path style="opacity:1" fill="#f0f3f5" d="M 131.5,530.5 C 132.833,530.5 134.167,530.5 135.5,530.5C 133.307,535.891 130.807,541.224 128,546.5C 126.228,550.313 125.395,554.313 125.5,558.5C 129.534,558.495 133.534,558.162 137.5,557.5C 137.67,558.822 137.337,559.989 136.5,561C 124.448,566.385 119.615,562.552 122,549.5C 124.13,542.584 127.297,536.251 131.5,530.5 Z"/></g>
<g><path style="opacity:1" fill="#f0f3f6" d="M 210.5,537.5 C 213.492,538.132 214.159,539.799 212.5,542.5C 214.51,543.065 216.176,544.065 217.5,545.5C 215.167,546.167 212.833,546.833 210.5,547.5C 209.358,550.399 208.692,553.399 208.5,556.5C 209.93,556.579 211.264,556.246 212.5,555.5C 214.645,556.682 214.645,558.182 212.5,560C 207.18,561.832 204.513,559.999 204.5,554.5C 204.63,552.625 204.963,550.792 205.5,549C 201.265,545.605 201.932,543.439 207.5,542.5C 208.26,540.64 209.26,538.973 210.5,537.5 Z"/></g>
<g><path style="opacity:1" fill="#f0f3f6" d="M 147.5,543.5 C 154.239,543.972 156.073,547.305 153,553.5C 150.518,558.156 146.685,560.322 141.5,560C 138.765,552.94 140.765,547.44 147.5,543.5 Z"/></g>
<g><path style="opacity:1" fill="#f1f4f7" d="M 162.5,542.5 C 166.642,542.403 168.976,544.403 169.5,548.5C 167.357,555.603 164.69,562.437 161.5,569C 155.975,569.309 153.975,566.809 155.5,561.5C 156.695,563.297 158.362,564.297 160.5,564.5C 160.756,562.063 161.423,559.729 162.5,557.5C 160.761,557.406 158.761,557.239 156.5,557C 154.481,550.535 156.481,545.702 162.5,542.5 Z"/></g>
<g><path style="opacity:1" fill="#f0f3f6" d="M 177.5,543.5 C 180.236,545.897 183.236,547.231 186.5,547.5C 185.234,552.272 182.568,556.106 178.5,559C 173.014,560.825 170.514,558.992 171,553.5C 172.246,549.448 174.413,546.115 177.5,543.5 Z"/></g>
<g><path style="opacity:1" fill="#f0f3f6" d="M 191.5,543.5 C 192.5,543.5 193.5,543.5 194.5,543.5C 194.095,546.987 193.095,550.32 191.5,553.5C 192.868,554.594 194.035,554.26 195,552.5C 195.977,549.898 197.144,547.398 198.5,545C 200.473,544.462 201.473,545.296 201.5,547.5C 200.504,553.513 197.171,557.513 191.5,559.5C 188.216,558.872 186.883,556.872 187.5,553.5C 187.737,549.698 189.07,546.365 191.5,543.5 Z"/></g>
<g><path style="opacity:1" fill="#1f4b76" d="M 162.5,547.5 C 163.376,547.369 164.043,547.702 164.5,548.5C 163.876,550.754 162.543,552.421 160.5,553.5C 160.167,553 159.833,552.5 159.5,552C 160.315,550.357 161.315,548.857 162.5,547.5 Z"/></g>
<g><path style="opacity:1" fill="#27517b" d="M 147.5,548.5 C 149.768,551.117 149.101,553.45 145.5,555.5C 144.633,552.857 145.3,550.523 147.5,548.5 Z"/></g>
<g><path style="opacity:1" fill="#2d547d" d="M 177.5,549.5 C 178.473,549.987 179.473,550.487 180.5,551C 175.936,557.147 174.936,556.647 177.5,549.5 Z"/></g>
<g><path style="opacity:1" fill="#d1cfcd" d="M 458.5,258.5 C 458.333,371.834 458.5,485.167 459,598.5C 459.697,600.584 460.864,602.251 462.5,603.5C 461.402,604.397 461.402,605.23 462.5,606C 466.802,606.286 470.135,608.286 472.5,612C 482.609,616.718 493.276,618.718 504.5,618C 724.5,618.667 944.5,618.667 1164.5,618C 1175.72,618.718 1186.39,616.718 1196.5,612C 1198.86,608.286 1202.2,606.286 1206.5,606C 1207.34,604.989 1207.67,603.822 1207.5,602.5C 1208.56,601.4 1209.39,600.066 1210,598.5C 1210.5,485.167 1210.67,371.834 1210.5,258.5C 1211.17,258.833 1211.83,259.167 1212.5,259.5C 1213.11,270.509 1213.95,281.509 1215,292.5C 1215.67,388.5 1215.67,484.5 1215,580.5C 1216.83,612.004 1202,626.837 1170.5,625C 946.5,625.667 722.5,625.667 498.5,625C 467.004,626.837 452.171,612.004 454,580.5C 453.333,484.5 453.333,388.5 454,292.5C 455.055,281.509 455.888,270.509 456.5,259.5C 457.167,259.167 457.833,258.833 458.5,258.5 Z"/></g>
<g><path style="opacity:1" fill="#cccbc9" d="M 1207.5,602.5 C 1207.67,603.822 1207.34,604.989 1206.5,606C 1202.2,606.286 1198.86,608.286 1196.5,612C 1186.39,616.718 1175.72,618.718 1164.5,618C 944.5,618.667 724.5,618.667 504.5,618C 493.276,618.718 482.609,616.718 472.5,612C 470.135,608.286 466.802,606.286 462.5,606C 461.402,605.23 461.402,604.397 462.5,603.5C 466.4,604.43 470.4,604.763 474.5,604.5C 475.598,605.397 475.598,606.23 474.5,607C 479.542,610.68 485.208,612.68 491.5,613C 720.167,613.667 948.833,613.667 1177.5,613C 1183.23,612.568 1188.56,610.902 1193.5,608C 1193.62,606.855 1193.95,605.688 1194.5,604.5C 1199.07,604.946 1203.4,604.28 1207.5,602.5 Z"/></g>
<g><path style="opacity:1" fill="#6e757c" d="M 653.5,488.5 C 774.5,488.333 895.5,488.5 1016.5,489C 1019.23,489.398 1021.07,490.898 1022,493.5C 1022.67,514.5 1022.67,535.5 1022,556.5C 1021.5,559.667 1019.67,561.5 1016.5,562C 895.5,562.667 774.5,562.667 653.5,562C 650.898,561.065 649.398,559.232 649,556.5C 648.333,535.5 648.333,514.5 649,493.5C 650.025,491.313 651.525,489.646 653.5,488.5 Z"/></g>
<g><path style="opacity:1" fill="#fefefe" d="M 653.5,490.5 C 774.5,490.333 895.5,490.5 1016.5,491C 1017.93,491.465 1019.1,492.299 1020,493.5C 1020.67,514.5 1020.67,535.5 1020,556.5C 1019.5,558.333 1018.33,559.5 1016.5,560C 895.5,560.667 774.5,560.667 653.5,560C 652.299,559.097 651.465,557.931 651,556.5C 650.333,535.5 650.333,514.5 651,493.5C 652.045,492.627 652.878,491.627 653.5,490.5 Z"/></g>
<g><path style="opacity:1" fill="#7e858b" d="M 858.5,519.5 C 864.608,519.361 867.274,522.361 866.5,528.5C 863.102,528.18 859.768,528.513 856.5,529.5C 858.652,532.633 861.485,533.3 865,531.5C 866.811,532.424 866.645,533.257 864.5,534C 856.501,535.665 853.001,532.498 854,524.5C 855.025,522.313 856.525,520.646 858.5,519.5 Z"/></g>
<g><path style="opacity:1" fill="#ecedee" d="M 858.5,522.5 C 861.288,522.077 863.288,523.077 864.5,525.5C 861.833,526.833 859.167,526.833 856.5,525.5C 857.193,524.482 857.859,523.482 858.5,522.5 Z"/></g>
<g><path style="opacity:1" fill="#777e84" d="M 850.5,519.5 C 852.048,519.821 852.715,520.821 852.5,522.5C 850.61,522.297 849.11,522.963 848,524.5C 847.502,527.817 847.335,531.15 847.5,534.5C 846.5,534.5 845.5,534.5 844.5,534.5C 844.5,529.833 844.5,525.167 844.5,520.5C 845.822,520.33 846.989,520.663 848,521.5C 848.995,520.934 849.828,520.267 850.5,519.5 Z"/></g>
<g><path style="opacity:1" fill="#7b8188" d="M 831.5,519.5 C 838.531,519.255 841.698,522.588 841,529.5C 838.928,534.143 835.428,535.643 830.5,534C 826.268,528.809 826.601,523.975 831.5,519.5 Z"/></g>
<g><path style="opacity:1" fill="#f8f8f8" d="M 831.5,522.5 C 838.641,522.62 840.308,525.787 836.5,532C 834.299,532.825 832.466,532.325 831,530.5C 830.398,527.779 830.565,525.113 831.5,522.5 Z"/></g>
<g><path style="opacity:1" fill="#7a8086" d="M 804.5,513.5 C 805.496,513.414 806.329,513.748 807,514.5C 809.079,518.993 811.412,523.326 814,527.5C 816.5,523.167 819,518.833 821.5,514.5C 822.274,513.289 823.107,513.289 824,514.5C 824.5,521.158 824.666,527.825 824.5,534.5C 823.5,534.5 822.5,534.5 821.5,534.5C 821.666,529.821 821.499,525.155 821,520.5C 818.905,524.365 816.572,528.032 814,531.5C 811.428,528.032 809.095,524.365 807,520.5C 806.828,525.202 806.328,529.868 805.5,534.5C 804.503,527.532 804.17,520.532 804.5,513.5 Z"/></g>
<g><path style="opacity:1" fill="#818386" d="M 812.5,420.5 C 813.434,421.568 813.768,422.901 813.5,424.5C 810.5,424.5 807.5,424.5 804.5,424.5C 806.948,423.527 809.615,423.194 812.5,423.5C 812.5,422.5 812.5,421.5 812.5,420.5 Z"/></g>
<g><path style="opacity:1" fill="#323538" d="M 898.5,414.5 C 903.778,413.84 907.944,415.507 911,419.5C 911.667,424.833 911.667,430.167 911,435.5C 909.286,436.925 907.953,436.592 907,434.5C 903.284,436.934 899.451,437.101 895.5,435C 892.575,431.304 892.908,427.971 896.5,425C 900.086,423.892 903.753,423.392 907.5,423.5C 907.579,422.07 907.246,420.736 906.5,419.5C 902.507,418.387 898.507,418.387 894.5,419.5C 894.281,418.325 894.614,417.325 895.5,416.5C 896.739,416.058 897.739,415.391 898.5,414.5 Z"/></g>
<g><path style="opacity:1" fill="#eeeeef" d="M 899.5,426.5 C 902.167,426.5 904.833,426.5 907.5,426.5C 906.893,433.297 903.726,434.964 898,431.5C 897.387,429.505 897.887,427.838 899.5,426.5 Z"/></g>
<g><path style="opacity:1" fill="#303337" d="M 870.5,414.5 C 872.411,414.574 873.578,415.574 874,417.5C 878.406,413.577 882.739,413.577 887,417.5C 888.416,423.715 888.916,430.048 888.5,436.5C 887.167,436.5 885.833,436.5 884.5,436.5C 884.666,431.156 884.499,425.823 884,420.5C 880.381,417.657 877.048,417.99 874,421.5C 873.501,426.489 873.334,431.489 873.5,436.5C 872.178,436.67 871.011,436.337 870,435.5C 869.205,428.42 869.372,421.42 870.5,414.5 Z"/></g>
<g><path style="opacity:1" fill="#313437" d="M 860.5,414.5 C 861.496,414.414 862.329,414.748 863,415.5C 863.5,422.492 863.666,429.492 863.5,436.5C 862.178,436.67 861.011,436.337 860,435.5C 859.205,428.42 859.372,421.42 860.5,414.5 Z"/></g>
<g><path style="opacity:1" fill="#313438" d="M 823.5,414.5 C 824.5,414.5 825.5,414.5 826.5,414.5C 826.351,415.552 826.517,416.552 827,417.5C 831.128,413.554 835.295,413.554 839.5,417.5C 844.456,413.193 848.956,413.527 853,418.5C 853.499,424.491 853.666,430.491 853.5,436.5C 852.178,436.67 851.011,436.337 850,435.5C 849.667,430.167 849.333,424.833 849,419.5C 846.667,418.167 844.333,418.167 842,419.5C 840.768,424.721 840.101,430.054 840,435.5C 838.989,436.337 837.822,436.67 836.5,436.5C 836.666,431.156 836.499,425.823 836,420.5C 832.706,417.689 829.706,418.022 827,421.5C 826.501,426.489 826.334,431.489 826.5,436.5C 825.178,436.67 824.011,436.337 823,435.5C 822.205,428.42 822.372,421.42 823.5,414.5 Z"/></g>
<g><path style="opacity:1" fill="#2b2e32" d="M 804.5,424.5 C 807.5,424.5 810.5,424.5 813.5,424.5C 813.768,422.901 813.434,421.568 812.5,420.5C 812.389,419.883 812.056,419.383 811.5,419C 807.797,418.421 804.131,418.588 800.5,419.5C 800.561,416.95 801.894,415.45 804.5,415C 808.709,413.811 812.376,414.644 815.5,417.5C 816.46,423.773 816.793,430.107 816.5,436.5C 814.857,436.52 813.524,435.853 812.5,434.5C 803.389,439.201 799.223,436.534 800,426.5C 801.33,425.418 802.83,424.751 804.5,424.5 Z"/></g>
<g><path style="opacity:1" fill="#ebebec" d="M 805.5,426.5 C 808.167,426.5 810.833,426.5 813.5,426.5C 813.001,432.843 809.834,434.843 804,432.5C 803.252,430.16 803.752,428.16 805.5,426.5 Z"/></g>
<g><path style="opacity:1" fill="#2f3135" d="M 786.5,408.5 C 787.5,408.5 788.5,408.5 789.5,408.5C 789.5,410.833 789.5,413.167 789.5,415.5C 791.833,415.5 794.167,415.5 796.5,415.5C 796.5,416.5 796.5,417.5 796.5,418.5C 794.167,418.5 791.833,418.5 789.5,418.5C 789.121,423.297 789.621,427.964 791,432.5C 793.041,433.423 795.208,433.756 797.5,433.5C 797.5,434.5 797.5,435.5 797.5,436.5C 794.813,436.664 792.146,436.497 789.5,436C 788.692,435.692 788.025,435.192 787.5,434.5C 785.735,429.331 785.068,423.998 785.5,418.5C 784.167,418.5 782.833,418.5 781.5,418.5C 781.5,417.5 781.5,416.5 781.5,415.5C 782.833,415.5 784.167,415.5 785.5,415.5C 785.298,413.05 785.631,410.717 786.5,408.5 Z"/></g>
<g><path style="opacity:1" fill="#3a3c40" d="M 860.5,405.5 C 864.161,405.35 865.161,406.85 863.5,410C 859.707,410.487 858.707,408.987 860.5,405.5 Z"/></g>
<g><path style="opacity:1" fill="#2a2d31" d="M 763.5,405.5 C 767.514,405.334 771.514,405.501 775.5,406C 778.215,406.875 779.548,408.708 779.5,411.5C 776.178,410.508 772.845,409.508 769.5,408.5C 762.626,409.167 760.96,412.334 764.5,418C 768.776,419.486 773.109,420.819 777.5,422C 781.582,426.551 781.249,430.884 776.5,435C 770.044,437.382 763.877,436.882 758,433.5C 757.517,432.552 757.351,431.552 757.5,430.5C 761.077,431.786 764.744,432.786 768.5,433.5C 772.527,433.828 775.194,432.161 776.5,428.5C 776.471,426.971 775.804,425.804 774.5,425C 770.877,423.844 767.211,422.844 763.5,422C 758.776,419.565 757.276,415.731 759,410.5C 760.193,408.503 761.693,406.836 763.5,405.5 Z"/></g>
<g><path style="opacity:1" fill="#a2a4a5" d="M 848.5,328.5 C 853.833,329.167 859.167,329.833 864.5,330.5C 858.794,330.829 853.128,330.495 847.5,329.5C 847.624,328.893 847.957,328.56 848.5,328.5 Z"/></g>
<g><path style="opacity:1" fill="#2d3034" d="M 879.5,291.5 C 886.422,291.188 893.256,291.521 900,292.5C 900.684,293.784 900.517,294.951 899.5,296C 893.509,296.499 887.509,296.666 881.5,296.5C 881.176,300.555 881.509,304.555 882.5,308.5C 900.108,306.303 905.608,313.636 899,330.5C 897.421,332.041 895.587,333.208 893.5,334C 888.5,334.667 883.5,334.667 878.5,334C 875.078,332.594 874.745,330.761 877.5,328.5C 891.771,333.705 897.605,329.038 895,314.5C 892.005,311.735 888.505,310.902 884.5,312C 882.147,313.964 879.647,314.464 877,313.5C 876.333,307.167 876.333,300.833 877,294.5C 878.045,293.627 878.878,292.627 879.5,291.5 Z"/></g>
<g><path style="opacity:1" fill="#25282c" d="M 758.5,292.5 C 760.5,292.5 762.5,292.5 764.5,292.5C 764.823,306.412 764.49,320.246 763.5,334C 762.216,334.684 761.049,334.517 760,333.5C 759.667,321.833 759.333,310.167 759,298.5C 755.762,301.923 751.929,304.257 747.5,305.5C 747.343,304.127 747.51,302.793 748,301.5C 751.665,298.601 755.165,295.601 758.5,292.5 Z"/></g>
<g><path style="opacity:1" fill="#2a2d31" d="M 722.5,292.5 C 724.5,292.5 726.5,292.5 728.5,292.5C 728.823,306.412 728.49,320.246 727.5,334C 726.004,334.507 724.837,334.007 724,332.5C 723.667,321.167 723.333,309.833 723,298.5C 719.762,301.923 715.929,304.257 711.5,305.5C 711.491,303.692 711.991,302.025 713,300.5C 716.358,297.969 719.524,295.302 722.5,292.5 Z"/></g>
<g><path style="opacity:1" fill="#282b2f" d="M 848.5,328.5 C 847.957,328.56 847.624,328.893 847.5,329.5C 853.128,330.495 858.794,330.829 864.5,330.5C 865.791,331.542 865.791,332.708 864.5,334C 856.254,334.815 848.088,334.648 840,333.5C 839.333,332.167 839.333,330.833 840,329.5C 845.635,324.867 850.968,319.867 856,314.5C 860.39,309.566 861.223,304.233 858.5,298.5C 855.29,295.778 851.624,294.944 847.5,296C 845.35,297.411 843.016,298.245 840.5,298.5C 840.178,296.278 840.845,294.444 842.5,293C 847.746,291.494 853.079,291.161 858.5,292C 864.603,295.04 866.769,299.874 865,306.5C 862.012,315.663 856.512,322.996 848.5,328.5 Z"/></g>
<g><path style="opacity:1" fill="#272a2e" d="M 916.5,289.5 C 928.838,289.333 941.171,289.5 953.5,290C 954,290.5 954.5,291 955,291.5C 955.667,306.833 955.667,322.167 955,337.5C 953.12,338.93 951.62,338.596 950.5,336.5C 940.188,335.501 929.855,335.168 919.5,335.5C 919.5,336.5 919.5,337.5 919.5,338.5C 917.856,338.714 916.356,338.38 915,337.5C 914.333,322.167 914.333,306.833 915,291.5C 915.717,290.956 916.217,290.289 916.5,289.5 Z"/></g>
<g><path style="opacity:1" fill="#f8f8f8" d="M 920.5,313.5 C 930.5,313.5 940.5,313.5 950.5,313.5C 950.5,319.167 950.5,324.833 950.5,330.5C 940.167,330.5 929.833,330.5 919.5,330.5C 919.214,324.741 919.548,319.075 920.5,313.5 Z"/></g>
<g><path style="opacity:1" fill="#f8f8f8" d="M 919.5,293.5 C 929.833,293.5 940.167,293.5 950.5,293.5C 950.5,298.833 950.5,304.167 950.5,309.5C 940.167,309.5 929.833,309.5 919.5,309.5C 919.5,304.167 919.5,298.833 919.5,293.5 Z"/></g>
<g><path style="opacity:1" fill="#2e3135" d="M 789.5,288.5 C 801.171,288.333 812.838,288.5 824.5,289C 825,289.5 825.5,290 826,290.5C 826.667,305.5 826.667,320.5 826,335.5C 825.626,336.416 825.126,337.25 824.5,338C 819.833,338.667 815.167,338.667 810.5,338C 809.167,337 809.167,336 810.5,335C 814.089,334.793 817.589,334.293 821,333.5C 821.499,329.514 821.666,325.514 821.5,321.5C 811.828,321.334 802.161,321.5 792.5,322C 791.164,328.005 788.498,333.338 784.5,338C 781.333,338.833 780.167,337.667 781,334.5C 784.054,331.058 786.054,327.058 787,322.5C 787.333,311.833 787.667,301.167 788,290.5C 788.717,289.956 789.217,289.289 789.5,288.5 Z"/></g>
<g><path style="opacity:1" fill="#fefefe" d="M 821.5,307.5 C 821.5,310.5 821.5,313.5 821.5,316.5C 812.167,316.5 802.833,316.5 793.5,316.5C 793.5,313.5 793.5,310.5 793.5,307.5C 802.833,307.5 812.167,307.5 821.5,307.5 Z"/></g>
<g><path style="opacity:1" fill="#c1c2c3" d="M 821.5,307.5 C 812.167,307.5 802.833,307.5 793.5,307.5C 793.5,310.5 793.5,313.5 793.5,316.5C 792.521,313.375 792.187,310.042 792.5,306.5C 802.348,306.173 812.014,306.506 821.5,307.5 Z"/></g>
<g><path style="opacity:1" fill="#fcfcfc" d="M 793.5,293.5 C 802.833,293.5 812.167,293.5 821.5,293.5C 821.5,296.5 821.5,299.5 821.5,302.5C 812.167,302.5 802.833,302.5 793.5,302.5C 793.5,299.5 793.5,296.5 793.5,293.5 Z"/></g>
<g><path style="opacity:1" fill="#c7c6c4" d="M 474.5,604.5 C 714.5,604.5 954.5,604.5 1194.5,604.5C 1193.95,605.688 1193.62,606.855 1193.5,608C 1188.56,610.902 1183.23,612.568 1177.5,613C 948.833,613.667 720.167,613.667 491.5,613C 485.208,612.68 479.542,610.68 474.5,607C 475.598,606.23 475.598,605.397 474.5,604.5 Z"/></g>
<g><path style="opacity:1" fill="#d1cfcd" d="M 1274.5,258.5 C 1274.33,371.834 1274.5,485.167 1275,598.5C 1275.7,600.584 1276.86,602.251 1278.5,603.5C 1277.4,604.397 1277.4,605.23 1278.5,606C 1282.8,606.286 1286.14,608.286 1288.5,612C 1298.61,616.718 1309.28,618.718 1320.5,618C 1541.17,618.667 1761.83,618.667 1982.5,618C 1993.72,618.718 2004.39,616.718 2014.5,612C 2016.86,608.286 2020.2,606.286 2024.5,606C 2025.34,604.989 2025.67,603.822 2025.5,602.5C 2026.56,601.4 2027.39,600.066 2028,598.5C 2028.5,485.167 2028.67,371.834 2028.5,258.5C 2029.17,258.833 2029.83,259.167 2030.5,259.5C 2031.11,270.509 2031.95,281.509 2033,292.5C 2033.67,388.5 2033.67,484.5 2033,580.5C 2034.83,612.004 2020,626.837 1988.5,625C 1763.83,625.667 1539.17,625.667 1314.5,625C 1283,626.837 1268.17,612.004 1270,580.5C 1269.33,484.5 1269.33,388.5 1270,292.5C 1271.05,281.509 1271.89,270.509 1272.5,259.5C 1273.17,259.167 1273.83,258.833 1274.5,258.5 Z"/></g>
<g><path style="opacity:1" fill="#cccbc9" d="M 2025.5,602.5 C 2025.67,603.822 2025.34,604.989 2024.5,606C 2020.2,606.286 2016.86,608.286 2014.5,612C 2004.39,616.718 1993.72,618.718 1982.5,618C 1761.83,618.667 1541.17,618.667 1320.5,618C 1309.28,618.718 1298.61,616.718 1288.5,612C 1286.14,608.286 1282.8,606.286 1278.5,606C 1277.4,605.23 1277.4,604.397 1278.5,603.5C 1282.4,604.43 1286.4,604.763 1290.5,604.5C 1291.6,605.397 1291.6,606.23 1290.5,607C 1295.54,610.68 1301.21,612.68 1307.5,613C 1536.83,613.667 1766.17,613.667 1995.5,613C 2001.23,612.568 2006.56,610.902 2011.5,608C 2011.62,606.855 2011.95,605.688 2012.5,604.5C 2017.07,604.946 2021.4,604.28 2025.5,602.5 Z"/></g>
<g><path style="opacity:1" fill="#6e757c" d="M 1469.5,488.5 C 1590.5,488.333 1711.5,488.5 1832.5,489C 1835.23,489.398 1837.07,490.898 1838,493.5C 1838.67,514.5 1838.67,535.5 1838,556.5C 1837.5,559.667 1835.67,561.5 1832.5,562C 1711.5,562.667 1590.5,562.667 1469.5,562C 1466.9,561.065 1465.4,559.232 1465,556.5C 1464.33,535.5 1464.33,514.5 1465,493.5C 1466.02,491.313 1467.52,489.646 1469.5,488.5 Z"/></g>
<g><path style="opacity:1" fill="#fefefe" d="M 1469.5,490.5 C 1590.5,490.333 1711.5,490.5 1832.5,491C 1833.93,491.465 1835.1,492.299 1836,493.5C 1836.67,514.5 1836.67,535.5 1836,556.5C 1835.5,558.333 1834.33,559.5 1832.5,560C 1711.5,560.667 1590.5,560.667 1469.5,560C 1468.3,559.097 1467.47,557.931 1467,556.5C 1466.33,535.5 1466.33,514.5 1467,493.5C 1468.04,492.627 1468.88,491.627 1469.5,490.5 Z"/></g>
<g><path style="opacity:1" fill="#7c8288" d="M 1673.5,520.5 C 1680.42,518.94 1683.76,521.607 1683.5,528.5C 1680.1,528.18 1676.77,528.513 1673.5,529.5C 1675.65,532.633 1678.49,533.3 1682,531.5C 1683.81,532.424 1683.64,533.257 1681.5,534C 1672.67,535.833 1669.17,532.333 1671,523.5C 1672.04,522.627 1672.88,521.627 1673.5,520.5 Z"/></g>
<g><path style="opacity:1" fill="#eaebec" d="M 1674.5,522.5 C 1677.6,521.907 1679.93,522.907 1681.5,525.5C 1678.91,526.48 1676.25,526.813 1673.5,526.5C 1673.43,525.041 1673.77,523.708 1674.5,522.5 Z"/></g>
<g><path style="opacity:1" fill="#737980" d="M 1666.5,519.5 C 1667.68,519.281 1668.68,519.614 1669.5,520.5C 1667.78,521.92 1665.95,523.253 1664,524.5C 1663.82,527.882 1663.32,531.215 1662.5,534.5C 1661.17,529.833 1661.17,525.167 1662.5,520.5C 1664.03,521.421 1665.36,521.088 1666.5,519.5 Z"/></g>
<g><path style="opacity:1" fill="#7c8289" d="M 1648.5,519.5 C 1656.12,519.972 1658.96,523.972 1657,531.5C 1653,535.5 1649,535.5 1645,531.5C 1643.59,526.643 1644.76,522.643 1648.5,519.5 Z"/></g>
<g><path style="opacity:1" fill="#fbfbfb" d="M 1648.5,522.5 C 1654.2,522.146 1656.04,524.813 1654,530.5C 1652,533.167 1650,533.167 1648,530.5C 1647.28,527.739 1647.44,525.073 1648.5,522.5 Z"/></g>
<g><path style="opacity:1" fill="#797f86" d="M 1621.5,513.5 C 1622.38,513.369 1623.04,513.702 1623.5,514.5C 1626,518.833 1628.5,523.167 1631,527.5C 1633.6,522.631 1636.43,517.964 1639.5,513.5C 1640.83,520.5 1640.83,527.5 1639.5,534.5C 1638.67,529.868 1638.17,525.202 1638,520.5C 1635.98,524.551 1633.48,528.217 1630.5,531.5C 1628.33,527.833 1626.17,524.167 1624,520.5C 1623.5,525.155 1623.33,529.821 1623.5,534.5C 1622.5,534.5 1621.5,534.5 1620.5,534.5C 1620.2,527.412 1620.54,520.412 1621.5,513.5 Z"/></g>
<g><path style="opacity:1" fill="#2b2d31" d="M 1706.5,405.5 C 1712.26,405.149 1717.93,405.649 1723.5,407C 1729.45,411.123 1730.12,416.123 1725.5,422C 1720.41,424.177 1715.07,425.01 1709.5,424.5C 1709.5,428.5 1709.5,432.5 1709.5,436.5C 1708.17,436.5 1706.83,436.5 1705.5,436.5C 1705.19,426.085 1705.53,415.751 1706.5,405.5 Z"/></g>
<g><path style="opacity:1" fill="#f3f4f4" d="M 1709.5,408.5 C 1713.6,408.234 1717.6,408.734 1721.5,410C 1725.5,413.333 1725.5,416.667 1721.5,420C 1717.51,420.499 1713.51,420.666 1709.5,420.5C 1709.5,416.5 1709.5,412.5 1709.5,408.5 Z"/></g>
<g><path style="opacity:1" fill="#282b2f" d="M 1646.5,405.5 C 1651.18,405.334 1655.85,405.501 1660.5,406C 1667.89,407.956 1670.06,412.456 1667,419.5C 1665.65,421.019 1664.15,422.352 1662.5,423.5C 1665.86,427.222 1667.86,431.555 1668.5,436.5C 1667.18,436.67 1666.01,436.337 1665,435.5C 1663.34,431.504 1661.17,427.837 1658.5,424.5C 1655.58,423.593 1652.58,423.26 1649.5,423.5C 1649.5,427.833 1649.5,432.167 1649.5,436.5C 1648.17,436.5 1646.83,436.5 1645.5,436.5C 1645.19,426.085 1645.53,415.751 1646.5,405.5 Z"/></g>
<g><path style="opacity:1" fill="#f1f1f1" d="M 1649.5,408.5 C 1653.6,408.234 1657.6,408.734 1661.5,410C 1665.57,413.745 1665.23,417.078 1660.5,420C 1656.85,420.499 1653.18,420.665 1649.5,420.5C 1649.5,416.5 1649.5,412.5 1649.5,408.5 Z"/></g>
<g><path style="opacity:1" fill="#2a2d31" d="M 1684.5,405.5 C 1686.39,405.297 1687.89,405.963 1689,407.5C 1693.42,416.99 1697.25,426.656 1700.5,436.5C 1699.18,436.67 1698.01,436.337 1697,435.5C 1696.07,433.541 1695.24,431.541 1694.5,429.5C 1689.2,428.337 1683.86,428.171 1678.5,429C 1677.6,431.192 1676.6,433.358 1675.5,435.5C 1674.31,436.429 1672.98,436.762 1671.5,436.5C 1675.55,426.058 1679.89,415.725 1684.5,405.5 Z"/></g>
<g><path style="opacity:1" fill="#f0f0f0" d="M 1685.5,411.5 C 1688.38,415.42 1690.71,419.754 1692.5,424.5C 1688.55,425.491 1684.55,425.824 1680.5,425.5C 1682.16,420.844 1683.83,416.177 1685.5,411.5 Z"/></g>
<g><path style="opacity:1" fill="#2c2f33" d="M 1635.5,435.5 C 1635.67,428.159 1635.5,420.826 1635,413.5C 1634.28,414.044 1633.78,414.711 1633.5,415.5C 1631.01,420.473 1628.51,425.473 1626,430.5C 1624.06,431.86 1622.4,431.527 1621,429.5C 1618.59,424.341 1615.92,419.341 1613,414.5C 1612.5,421.826 1612.33,429.159 1612.5,436.5C 1611.18,436.67 1610.01,436.337 1609,435.5C 1608.33,425.833 1608.33,416.167 1609,406.5C 1610.33,405.167 1611.67,405.167 1613,406.5C 1616.16,413.488 1619.83,420.154 1624,426.5C 1627.59,420.325 1630.92,413.991 1634,407.5C 1635.11,405.963 1636.61,405.297 1638.5,405.5C 1638.5,415.833 1638.5,426.167 1638.5,436.5C 1637.21,436.737 1636.21,436.404 1635.5,435.5 Z"/></g>
<g><path style="opacity:1" fill="#727577" d="M 1635.5,435.5 C 1634.83,428.833 1634.17,422.167 1633.5,415.5C 1633.78,414.711 1634.28,414.044 1635,413.5C 1635.5,420.826 1635.67,428.159 1635.5,435.5 Z"/></g>
<g><path style="opacity:1" fill="#292c30" d="M 1587.5,405.5 C 1588.98,405.238 1590.31,405.571 1591.5,406.5C 1596.49,416.155 1600.49,426.155 1603.5,436.5C 1602.18,436.67 1601.01,436.337 1600,435.5C 1599.05,429.644 1595.55,427.31 1589.5,428.5C 1583.45,427.31 1579.95,429.644 1579,435.5C 1577.99,436.337 1576.82,436.67 1575.5,436.5C 1578.71,425.882 1582.71,415.548 1587.5,405.5 Z"/></g>
<g><path style="opacity:1" fill="#eeeeee" d="M 1588.5,411.5 C 1589.38,411.369 1590.04,411.702 1590.5,412.5C 1592.17,416.5 1593.83,420.5 1595.5,424.5C 1591.5,425.833 1587.5,425.833 1583.5,424.5C 1585.46,420.256 1587.12,415.923 1588.5,411.5 Z"/></g>
<g><path style="opacity:1" fill="#a3a5a6" d="M 1665.5,328.5 C 1670.83,329.167 1676.17,329.833 1681.5,330.5C 1675.49,330.666 1669.49,330.499 1663.5,330C 1664.04,329.283 1664.71,328.783 1665.5,328.5 Z"/></g>
<g><path style="opacity:1" fill="#c4c5c6" d="M 1574.5,299.5 C 1574.56,298.957 1574.89,298.624 1575.5,298.5C 1576.5,309.814 1576.83,321.147 1576.5,332.5C 1575.83,321.5 1575.17,310.5 1574.5,299.5 Z"/></g>
<g><path style="opacity:1" fill="#2b2e32" d="M 1707.5,292.5 C 1709.47,292.261 1711.3,292.594 1713,293.5C 1713.5,302.494 1713.67,311.494 1713.5,320.5C 1715.53,320.338 1717.53,320.505 1719.5,321C 1720.83,322 1720.83,323 1719.5,324C 1717.53,324.495 1715.53,324.662 1713.5,324.5C 1713.66,327.187 1713.5,329.854 1713,332.5C 1712.05,334.592 1710.71,334.925 1709,333.5C 1708.5,330.518 1708.34,327.518 1708.5,324.5C 1701.83,324.666 1695.16,324.5 1688.5,324C 1687.98,323.439 1687.64,322.772 1687.5,322C 1693.98,312.022 1700.65,302.189 1707.5,292.5 Z"/></g>
<g><path style="opacity:1" fill="#f7f7f7" d="M 1706.5,301.5 C 1707.49,307.645 1707.82,313.978 1707.5,320.5C 1702.82,320.666 1698.15,320.499 1693.5,320C 1697.72,313.717 1702.05,307.55 1706.5,301.5 Z"/></g>
<g><path style="opacity:1" fill="#8f9092" d="M 1706.5,301.5 C 1706.56,300.957 1706.89,300.624 1707.5,300.5C 1708.82,307.322 1708.82,313.989 1707.5,320.5C 1707.82,313.978 1707.49,307.645 1706.5,301.5 Z"/></g>
<g><path style="opacity:1" fill="#26292d" d="M 1576.5,332.5 C 1576.83,321.147 1576.5,309.814 1575.5,298.5C 1574.89,298.624 1574.56,298.957 1574.5,299.5C 1571.43,302.033 1568.09,304.033 1564.5,305.5C 1564.34,304.127 1564.51,302.793 1565,301.5C 1568.7,297.491 1573.03,294.491 1578,292.5C 1579.11,292.585 1580.11,292.919 1581,293.5C 1581.67,306.833 1581.67,320.167 1581,333.5C 1579.08,334.916 1577.58,334.582 1576.5,332.5 Z"/></g>
<g><path style="opacity:1" fill="#25282c" d="M 1539.5,292.5 C 1541.5,292.5 1543.5,292.5 1545.5,292.5C 1545.82,306.412 1545.49,320.246 1544.5,334C 1543.22,334.684 1542.05,334.517 1541,333.5C 1540.67,321.833 1540.33,310.167 1540,298.5C 1536.76,301.923 1532.93,304.257 1528.5,305.5C 1528.34,304.127 1528.51,302.793 1529,301.5C 1532.66,298.601 1536.16,295.601 1539.5,292.5 Z"/></g>
<g><path style="opacity:1" fill="#292c30" d="M 1665.5,328.5 C 1664.71,328.783 1664.04,329.283 1663.5,330C 1669.49,330.499 1675.49,330.666 1681.5,330.5C 1682.79,331.542 1682.79,332.708 1681.5,334C 1673.17,334.5 1664.84,334.666 1656.5,334.5C 1656.34,332.801 1656.51,331.134 1657,329.5C 1663.33,324.5 1669,318.833 1674,312.5C 1679.97,301.297 1676.8,295.797 1664.5,296C 1662.23,297.118 1659.9,297.951 1657.5,298.5C 1657.21,296.712 1657.55,295.045 1658.5,293.5C 1666.12,290.287 1673.29,290.954 1680,295.5C 1683.26,301.138 1683.26,306.804 1680,312.5C 1676.01,318.653 1671.18,323.986 1665.5,328.5 Z"/></g>
<g><path style="opacity:1" fill="#292c30" d="M 1732.5,289.5 C 1745.17,289.333 1757.84,289.5 1770.5,290C 1771,290.5 1771.5,291 1772,291.5C 1772.67,306.833 1772.67,322.167 1772,337.5C 1770.64,338.38 1769.14,338.714 1767.5,338.5C 1767.5,337.5 1767.5,336.5 1767.5,335.5C 1757.15,335.168 1746.81,335.501 1736.5,336.5C 1735.33,338.217 1733.66,338.884 1731.5,338.5C 1731.18,322.089 1731.52,305.756 1732.5,289.5 Z"/></g>
<g><path style="opacity:1" fill="#f8f8f8" d="M 1736.5,313.5 C 1746.51,313.334 1756.51,313.5 1766.5,314C 1767.47,319.407 1767.81,324.907 1767.5,330.5C 1757.17,330.5 1746.83,330.5 1736.5,330.5C 1736.5,324.833 1736.5,319.167 1736.5,313.5 Z"/></g>
<g><path style="opacity:1" fill="#fefefe" d="M 1736.5,294.5 C 1746.5,294.5 1756.5,294.5 1766.5,294.5C 1766.5,299.5 1766.5,304.5 1766.5,309.5C 1756.5,309.5 1746.5,309.5 1736.5,309.5C 1736.5,304.5 1736.5,299.5 1736.5,294.5 Z"/></g>
<g><path style="opacity:1" fill="#afb0b2" d="M 1736.5,294.5 C 1746.65,293.506 1756.99,293.172 1767.5,293.5C 1767.82,299.026 1767.49,304.36 1766.5,309.5C 1766.5,304.5 1766.5,299.5 1766.5,294.5C 1756.5,294.5 1746.5,294.5 1736.5,294.5 Z"/></g>
<g><path style="opacity:1" fill="#313337" d="M 1606.5,288.5 C 1618.17,288.333 1629.84,288.5 1641.5,289C 1642,289.5 1642.5,290 1643,290.5C 1643.67,305.5 1643.67,320.5 1643,335.5C 1642.63,336.416 1642.13,337.25 1641.5,338C 1636.51,338.499 1631.51,338.666 1626.5,338.5C 1626.5,337.167 1626.5,335.833 1626.5,334.5C 1630.17,334.5 1633.83,334.5 1637.5,334.5C 1637.5,330.167 1637.5,325.833 1637.5,321.5C 1627.83,321.5 1618.17,321.5 1608.5,321.5C 1607.68,327.639 1605.35,333.139 1601.5,338C 1600.21,338.49 1598.87,338.657 1597.5,338.5C 1597.34,336.801 1597.51,335.134 1598,333.5C 1601.36,329.099 1603.36,324.099 1604,318.5C 1604.33,309.167 1604.67,299.833 1605,290.5C 1605.72,289.956 1606.22,289.289 1606.5,288.5 Z"/></g>
<g><path style="opacity:1" fill="#fefefe" d="M 1609.5,307.5 C 1618.83,307.5 1628.17,307.5 1637.5,307.5C 1637.5,310.5 1637.5,313.5 1637.5,316.5C 1628.17,316.5 1618.83,316.5 1609.5,316.5C 1609.5,313.5 1609.5,310.5 1609.5,307.5 Z"/></g>
<g><path style="opacity:1" fill="#c0c1c3" d="M 1609.5,307.5 C 1618.99,306.506 1628.65,306.173 1638.5,306.5C 1638.81,310.042 1638.48,313.375 1637.5,316.5C 1637.5,313.5 1637.5,310.5 1637.5,307.5C 1628.17,307.5 1618.83,307.5 1609.5,307.5 Z"/></g>
<g><path style="opacity:1" fill="#f8f8f8" d="M 1609.5,293.5 C 1619.17,293.5 1628.83,293.5 1638.5,293.5C 1638.5,296.5 1638.5,299.5 1638.5,302.5C 1628.83,302.5 1619.17,302.5 1609.5,302.5C 1609.5,299.5 1609.5,296.5 1609.5,293.5 Z"/></g>
<g><path style="opacity:1" fill="#c7c6c4" d="M 1290.5,604.5 C 1531.17,604.5 1771.83,604.5 2012.5,604.5C 2011.95,605.688 2011.62,606.855 2011.5,608C 2006.56,610.902 2001.23,612.568 1995.5,613C 1766.17,613.667 1536.83,613.667 1307.5,613C 1301.21,612.68 1295.54,610.68 1290.5,607C 1291.6,606.23 1291.6,605.397 1290.5,604.5 Z"/></g>
<g><path style="opacity:1" fill="#d1cfcd" d="M 2092.5,258.5 C 2092.33,371.834 2092.5,485.167 2093,598.5C 2093.7,600.584 2094.86,602.251 2096.5,603.5C 2095.4,604.397 2095.4,605.23 2096.5,606C 2100.8,606.286 2104.14,608.286 2106.5,612C 2116.61,616.718 2127.28,618.718 2138.5,618C 2358.5,618.667 2578.5,618.667 2798.5,618C 2809.72,618.718 2820.39,616.718 2830.5,612C 2832.86,608.286 2836.2,606.286 2840.5,606C 2841.34,604.989 2841.67,603.822 2841.5,602.5C 2842.56,601.4 2843.39,600.066 2844,598.5C 2844.5,485.167 2844.67,371.834 2844.5,258.5C 2845.17,258.833 2845.83,259.167 2846.5,259.5C 2847.11,270.509 2847.95,281.509 2849,292.5C 2849.67,388.5 2849.67,484.5 2849,580.5C 2850.83,612.004 2836,626.837 2804.5,625C 2580.5,625.667 2356.5,625.667 2132.5,625C 2101,626.837 2086.17,612.004 2088,580.5C 2087.33,484.5 2087.33,388.5 2088,292.5C 2089.05,281.509 2089.89,270.509 2090.5,259.5C 2091.17,259.167 2091.83,258.833 2092.5,258.5 Z"/></g>
<g><path style="opacity:1" fill="#cccbc9" d="M 2841.5,602.5 C 2841.67,603.822 2841.34,604.989 2840.5,606C 2836.2,606.286 2832.86,608.286 2830.5,612C 2820.39,616.718 2809.72,618.718 2798.5,618C 2578.5,618.667 2358.5,618.667 2138.5,618C 2127.28,618.718 2116.61,616.718 2106.5,612C 2104.14,608.286 2100.8,606.286 2096.5,606C 2095.4,605.23 2095.4,604.397 2096.5,603.5C 2100.4,604.43 2104.4,604.763 2108.5,604.5C 2109.6,605.397 2109.6,606.23 2108.5,607C 2113.54,610.68 2119.21,612.68 2125.5,613C 2354.17,613.667 2582.83,613.667 2811.5,613C 2817.23,612.568 2822.56,610.902 2827.5,608C 2827.62,606.855 2827.95,605.688 2828.5,604.5C 2833.07,604.946 2837.4,604.28 2841.5,602.5 Z"/></g>
<g><path style="opacity:1" fill="#6e757c" d="M 2285.5,488.5 C 2406.5,488.333 2527.5,488.5 2648.5,489C 2651.23,489.398 2653.07,490.898 2654,493.5C 2654.67,514.5 2654.67,535.5 2654,556.5C 2653.5,559.667 2651.67,561.5 2648.5,562C 2527.5,562.667 2406.5,562.667 2285.5,562C 2282.9,561.065 2281.4,559.232 2281,556.5C 2280.33,535.5 2280.33,514.5 2281,493.5C 2282.02,491.313 2283.52,489.646 2285.5,488.5 Z"/></g>
<g><path style="opacity:1" fill="#fefefe" d="M 2285.5,490.5 C 2406.5,490.333 2527.5,490.5 2648.5,491C 2649.93,491.465 2651.1,492.299 2652,493.5C 2652.67,514.5 2652.67,535.5 2652,556.5C 2651.5,558.333 2650.33,559.5 2648.5,560C 2527.5,560.667 2406.5,560.667 2285.5,560C 2284.3,559.097 2283.47,557.931 2283,556.5C 2282.33,535.5 2282.33,514.5 2283,493.5C 2284.04,492.627 2284.88,491.627 2285.5,490.5 Z"/></g>
<g><path style="opacity:1" fill="#7e848a" d="M 2491.5,519.5 C 2497.71,519.373 2500.37,522.373 2499.5,528.5C 2496.5,528.5 2493.5,528.5 2490.5,528.5C 2490.33,529.822 2490.66,530.989 2491.5,532C 2494.28,532.051 2496.94,532.218 2499.5,532.5C 2491.07,536.581 2486.91,533.914 2487,524.5C 2488.71,522.963 2490.21,521.296 2491.5,519.5 Z"/></g>
<g><path style="opacity:1" fill="#ecedee" d="M 2491.5,522.5 C 2495.24,521.599 2497.24,522.932 2497.5,526.5C 2494.75,526.813 2492.09,526.48 2489.5,525.5C 2490.19,524.482 2490.86,523.482 2491.5,522.5 Z"/></g>
<g><path style="opacity:1" fill="#787e85" d="M 2483.5,519.5 C 2485.05,519.821 2485.71,520.821 2485.5,522.5C 2483.61,522.297 2482.11,522.963 2481,524.5C 2480.5,527.817 2480.33,531.15 2480.5,534.5C 2479.5,534.5 2478.5,534.5 2477.5,534.5C 2477.5,529.833 2477.5,525.167 2477.5,520.5C 2478.82,520.33 2479.99,520.663 2481,521.5C 2481.99,520.934 2482.83,520.267 2483.5,519.5 Z"/></g>
<g><path style="opacity:1" fill="#7b8188" d="M 2465.5,519.5 C 2472.63,519.802 2475.47,523.469 2474,530.5C 2471.95,534.292 2468.78,535.458 2464.5,534C 2459,528.683 2459.34,523.85 2465.5,519.5 Z"/></g>
<g><path style="opacity:1" fill="#f7f8f8" d="M 2465.5,522.5 C 2470.98,522.438 2472.82,525.105 2471,530.5C 2468.16,533.371 2465.83,533.037 2464,529.5C 2463.17,526.829 2463.67,524.496 2465.5,522.5 Z"/></g>
<g><path style="opacity:1" fill="#787e85" d="M 2437.5,513.5 C 2438.5,513.414 2439.33,513.748 2440,514.5C 2442.59,518.674 2444.92,523.007 2447,527.5C 2450.01,523.494 2452.51,519.16 2454.5,514.5C 2455.32,513.614 2456.32,513.281 2457.5,513.5C 2457.5,520.5 2457.5,527.5 2457.5,534.5C 2456.5,534.5 2455.5,534.5 2454.5,534.5C 2454.67,529.821 2454.5,525.155 2454,520.5C 2452.32,524.532 2450.16,528.199 2447.5,531.5C 2444.44,527.922 2441.94,523.922 2440,519.5C 2439.83,524.533 2439.33,529.533 2438.5,534.5C 2437.5,527.532 2437.17,520.532 2437.5,513.5 Z"/></g>
<g><path style="opacity:1" fill="#b1b1b3" d="M 2508.5,408.5 C 2505.38,409.479 2502.04,409.813 2498.5,409.5C 2498.83,418.349 2498.49,427.016 2497.5,435.5C 2497.5,426.5 2497.5,417.5 2497.5,408.5C 2501.17,408.5 2504.83,408.5 2508.5,408.5 Z"/></g>
<g><path style="opacity:1" fill="#2d3034" d="M 2508.5,408.5 C 2504.83,408.5 2501.17,408.5 2497.5,408.5C 2497.5,417.5 2497.5,426.5 2497.5,435.5C 2496.46,436.791 2495.29,436.791 2494,435.5C 2493.5,426.84 2493.33,418.173 2493.5,409.5C 2490.15,409.665 2486.82,409.498 2483.5,409C 2482.66,407.989 2482.33,406.822 2482.5,405.5C 2491.17,405.5 2499.83,405.5 2508.5,405.5C 2508.5,406.5 2508.5,407.5 2508.5,408.5 Z"/></g>
<g><path style="opacity:1" fill="#222529" d="M 2475.5,405.5 C 2476.5,405.5 2477.5,405.5 2478.5,405.5C 2478.5,415.833 2478.5,426.167 2478.5,436.5C 2477.5,436.5 2476.5,436.5 2475.5,436.5C 2475.5,426.167 2475.5,415.833 2475.5,405.5 Z"/></g>
<g><path style="opacity:1" fill="#222529" d="M 2464.5,405.5 C 2465.5,405.5 2466.5,405.5 2467.5,405.5C 2467.5,415.833 2467.5,426.167 2467.5,436.5C 2466.5,436.5 2465.5,436.5 2464.5,436.5C 2464.5,426.167 2464.5,415.833 2464.5,405.5 Z"/></g>
<g><path style="opacity:1" fill="#25282c" d="M 2434.5,406.5 C 2434.5,410.833 2434.5,415.167 2434.5,419.5C 2440.83,419.5 2447.17,419.5 2453.5,419.5C 2453.5,415.167 2453.5,410.833 2453.5,406.5C 2454.21,405.596 2455.21,405.263 2456.5,405.5C 2456.5,415.833 2456.5,426.167 2456.5,436.5C 2455.18,436.67 2454.01,436.337 2453,435.5C 2452.5,431.179 2452.33,426.846 2452.5,422.5C 2446.5,422.5 2440.5,422.5 2434.5,422.5C 2434.5,427.167 2434.5,431.833 2434.5,436.5C 2433.5,436.5 2432.5,436.5 2431.5,436.5C 2431.5,426.167 2431.5,415.833 2431.5,405.5C 2432.79,405.263 2433.79,405.596 2434.5,406.5 Z"/></g>
<g><path style="opacity:1" fill="#8e8f91" d="M 2434.5,406.5 C 2435.48,410.298 2435.82,414.298 2435.5,418.5C 2441.17,418.5 2446.83,418.5 2452.5,418.5C 2452.18,414.298 2452.52,410.298 2453.5,406.5C 2453.5,410.833 2453.5,415.167 2453.5,419.5C 2447.17,419.5 2440.83,419.5 2434.5,419.5C 2434.5,415.167 2434.5,410.833 2434.5,406.5 Z"/></g>
<g><path style="opacity:1" fill="#a0a2a3" d="M 2481.5,328.5 C 2486.83,329.167 2492.17,329.833 2497.5,330.5C 2491.79,330.829 2486.13,330.495 2480.5,329.5C 2480.62,328.893 2480.96,328.56 2481.5,328.5 Z"/></g>
<g><path style="opacity:1" fill="#2d3034" d="M 2509.5,291.5 C 2517.42,291.185 2525.25,291.518 2533,292.5C 2533.67,294.167 2533.67,295.833 2533,297.5C 2529.17,301.333 2525.33,305.167 2521.5,309C 2534.78,311.066 2538.28,318.233 2532,330.5C 2530.42,332.041 2528.59,333.208 2526.5,334C 2520.72,334.903 2515.05,334.57 2509.5,333C 2508.07,331.12 2508.4,329.62 2510.5,328.5C 2517.5,331.967 2523.67,330.967 2529,325.5C 2530.23,321.409 2529.39,317.909 2526.5,315C 2522.64,313.646 2518.64,313.146 2514.5,313.5C 2514.34,311.801 2514.51,310.134 2515,308.5C 2518.83,304.667 2522.67,300.833 2526.5,297C 2520.83,296.667 2515.17,296.333 2509.5,296C 2508.27,294.51 2508.27,293.01 2509.5,291.5 Z"/></g>
<g><path style="opacity:1" fill="#2a2d31" d="M 2391.5,292.5 C 2393.5,292.5 2395.5,292.5 2397.5,292.5C 2397.82,306.412 2397.49,320.246 2396.5,334C 2395,334.507 2393.84,334.007 2393,332.5C 2392.67,321.167 2392.33,309.833 2392,298.5C 2388.76,301.923 2384.93,304.257 2380.5,305.5C 2380.49,303.692 2380.99,302.025 2382,300.5C 2385.36,297.969 2388.52,295.302 2391.5,292.5 Z"/></g>
<g><path style="opacity:1" fill="#2d3034" d="M 2355.5,292.5 C 2357.79,292.244 2359.96,292.577 2362,293.5C 2362.81,306.879 2362.65,320.212 2361.5,333.5C 2360.35,334.731 2359.18,334.731 2358,333.5C 2357.83,321.819 2357.33,310.152 2356.5,298.5C 2353.65,300.427 2350.98,302.594 2348.5,305C 2347.55,305.483 2346.55,305.649 2345.5,305.5C 2345.36,303.738 2345.69,302.071 2346.5,300.5C 2349.55,297.782 2352.55,295.116 2355.5,292.5 Z"/></g>
<g><path style="opacity:1" fill="#282b2f" d="M 2481.5,328.5 C 2480.96,328.56 2480.62,328.893 2480.5,329.5C 2486.13,330.495 2491.79,330.829 2497.5,330.5C 2498.43,331.568 2498.77,332.901 2498.5,334.5C 2490.16,334.666 2481.83,334.5 2473.5,334C 2472.98,333.439 2472.64,332.772 2472.5,332C 2477.93,325.569 2483.76,319.403 2490,313.5C 2493.4,308.785 2494.07,303.785 2492,298.5C 2486.65,294.841 2481.15,294.841 2475.5,298.5C 2472.71,295.036 2473.71,292.87 2478.5,292C 2498.37,290.542 2503.53,298.709 2494,316.5C 2489.96,320.704 2485.8,324.704 2481.5,328.5 Z"/></g>
<g><path style="opacity:1" fill="#2b2e32" d="M 2549.5,289.5 C 2562.41,289.178 2575.25,289.511 2588,290.5C 2588.5,306.497 2588.67,322.497 2588.5,338.5C 2586.34,338.884 2584.67,338.217 2583.5,336.5C 2573.19,335.501 2562.85,335.168 2552.5,335.5C 2552.5,336.5 2552.5,337.5 2552.5,338.5C 2550.86,338.714 2549.36,338.38 2548,337.5C 2547.33,322.167 2547.33,306.833 2548,291.5C 2548.72,290.956 2549.22,290.289 2549.5,289.5 Z"/></g>
<g><path style="opacity:1" fill="#f7f7f7" d="M 2553.5,313.5 C 2563.5,313.5 2573.5,313.5 2583.5,313.5C 2583.5,319.167 2583.5,324.833 2583.5,330.5C 2573.17,330.5 2562.83,330.5 2552.5,330.5C 2552.21,324.741 2552.55,319.075 2553.5,313.5 Z"/></g>
<g><path style="opacity:1" fill="#f7f7f7" d="M 2553.5,293.5 C 2563.5,293.5 2573.5,293.5 2583.5,293.5C 2583.5,298.833 2583.5,304.167 2583.5,309.5C 2573.17,309.5 2562.83,309.5 2552.5,309.5C 2552.22,304.073 2552.55,298.74 2553.5,293.5 Z"/></g>
<g><path style="opacity:1" fill="#2d3034" d="M 2423.5,288.5 C 2434.84,288.333 2446.17,288.5 2457.5,289C 2458,289.5 2458.5,290 2459,290.5C 2459.67,305.833 2459.67,321.167 2459,336.5C 2458.5,337 2458,337.5 2457.5,338C 2452.85,338.499 2448.18,338.666 2443.5,338.5C 2443.5,337.167 2443.5,335.833 2443.5,334.5C 2447.17,334.5 2450.83,334.5 2454.5,334.5C 2454.5,330.167 2454.5,325.833 2454.5,321.5C 2444.81,321.168 2435.14,321.502 2425.5,322.5C 2424.54,328.582 2421.88,333.749 2417.5,338C 2414.33,338.833 2413.17,337.667 2414,334.5C 2416.5,331.498 2418.5,328.165 2420,324.5C 2421.19,313.208 2421.86,301.875 2422,290.5C 2422.72,289.956 2423.22,289.289 2423.5,288.5 Z"/></g>
<g><path style="opacity:1" fill="#fafafa" d="M 2426.5,306.5 C 2435.83,306.5 2445.17,306.5 2454.5,306.5C 2454.5,309.833 2454.5,313.167 2454.5,316.5C 2445.17,316.5 2435.83,316.5 2426.5,316.5C 2426.5,313.167 2426.5,309.833 2426.5,306.5 Z"/></g>
<g><path style="opacity:1" fill="#fcfcfc" d="M 2426.5,293.5 C 2435.83,293.5 2445.17,293.5 2454.5,293.5C 2454.5,296.5 2454.5,299.5 2454.5,302.5C 2445.17,302.5 2435.83,302.5 2426.5,302.5C 2426.5,299.5 2426.5,296.5 2426.5,293.5 Z"/></g>
<g><path style="opacity:1" fill="#c7c6c4" d="M 2108.5,604.5 C 2348.5,604.5 2588.5,604.5 2828.5,604.5C 2827.95,605.688 2827.62,606.855 2827.5,608C 2822.56,610.902 2817.23,612.568 2811.5,613C 2582.83,613.667 2354.17,613.667 2125.5,613C 2119.21,612.68 2113.54,610.68 2108.5,607C 2109.6,606.23 2109.6,605.397 2108.5,604.5 Z"/></g>
<g><path style="opacity:1" fill="#f3f6f8" d="M 156.5,632.5 C 159.05,632.884 160.383,634.384 160.5,637C 158.251,645.748 156.417,654.581 155,663.5C 153.989,664.337 152.822,664.67 151.5,664.5C 151.396,657.626 152.23,650.959 154,644.5C 151.275,650.786 147.442,656.286 142.5,661C 140.299,661.825 138.466,661.325 137,659.5C 137.126,655.467 137.46,651.467 138,647.5C 135.06,653.586 131.56,659.253 127.5,664.5C 126.28,664.113 125.613,663.28 125.5,662C 130.112,652.609 135.112,643.442 140.5,634.5C 141.651,633.269 142.817,633.269 144,634.5C 144.167,636 144.333,637.5 144.5,639C 143.405,644.522 142.572,650.022 142,655.5C 146.844,647.805 151.677,640.139 156.5,632.5 Z"/></g>
<g><path style="opacity:1" fill="#f0f3f6" d="M 166.5,644.5 C 174.045,645.062 175.378,648.229 170.5,654C 168.19,654.497 165.857,654.663 163.5,654.5C 163.222,656.346 163.889,657.68 165.5,658.5C 167.323,657.253 169.323,656.586 171.5,656.5C 170.491,661.346 167.491,663.18 162.5,662C 159.03,658.663 158.53,654.83 161,650.5C 162.36,647.977 164.193,645.977 166.5,644.5 Z"/></g>
<g><path style="opacity:1" fill="#f0f3f6" d="M 178.5,645.5 C 179.496,645.414 180.329,645.748 181,646.5C 181.202,648.256 181.702,649.922 182.5,651.5C 183.874,650.289 185.374,649.289 187,648.5C 187.873,648.735 188.707,649.069 189.5,649.5C 190.24,652.836 190.906,656.17 191.5,659.5C 190.38,661.596 188.88,661.93 187,660.5C 186.667,658.167 186.333,655.833 186,653.5C 183.205,655.293 180.705,657.46 178.5,660C 176.888,660.72 175.388,660.554 174,659.5C 174.775,654.672 176.275,650.006 178.5,645.5 Z"/></g>
<g><path style="opacity:1" fill="#eef1f4" d="M 198.5,645.5 C 202.243,647.427 202.41,649.761 199,652.5C 198.333,653.5 198.333,654.5 199,655.5C 201.784,652.767 203.951,649.601 205.5,646C 207.319,645.217 208.652,645.717 209.5,647.5C 206.386,651.811 205.386,656.478 206.5,661.5C 203.251,663.222 201.418,662.222 201,658.5C 195.695,662.888 193.362,661.555 194,654.5C 194.986,651.194 196.486,648.194 198.5,645.5 Z"/></g>
<g><path style="opacity:1" fill="#2d567e" d="M 167.5,648.5 C 168.376,648.369 169.043,648.702 169.5,649.5C 165.75,652.303 165.084,651.97 167.5,648.5 Z"/></g>
</svg>
